<?xml version="1.0" encoding="UTF-8"?>
<!DOCTYPE svg PUBLIC "-//W3C//DTD SVG 1.1//EN" "http://www.w3.org/Graphics/SVG/1.1/DTD/svg11.dtd">
<!-- Creator: CorelDRAW -->
<svg xmlns="http://www.w3.org/2000/svg" xml:space="preserve" width="0.930177in" height="0.925736in" style="shape-rendering:geometricPrecision; text-rendering:geometricPrecision; image-rendering:optimizeQuality; fill-rule:evenodd; clip-rule:evenodd"
viewBox="0 0 0.0427287 0.0425247"
 xmlns:xlink="http://www.w3.org/1999/xlink">
 <defs>
   <clipPath id="id0">
    <path d="M0.0336229 0.0184596c-0.0051868,0 -0.00940604,-0.00421888 -0.00940604,-0.00940586 1.80851e-007,-0.00416879 0.00279903,-0.00788418 0.00680867,-0.00903548 0.000174159,-4.81063e-005 0.000357361,0 0.000485041,0.000125872 0.000125872,0.0001275 0.000173978,0.000312872 0.000124064,0.000484861 -0.000219914,0.000768073 -0.000331499,0.00155134 -0.000331499,0.0023252 3.61701e-007,0.00464244 0.00377652,0.00841896 0.00841914,0.00841896 0.000774041,0 0.00155495,-0.000110861 0.00232502,-0.000331318 0.000174159,-4.81063e-005 0.000357361,-1.80851e-006 0.000485041,0.000124064 0.000126234,0.000127861 0.000174159,0.000312872 0.000124244,0.000485041 -0.00114967,0.00400946 -0.00486506,0.00680867 -0.00903367,0.00680867z"/>
   </clipPath>
   <clipPath id="id1">
    <path d="M0.0295168 0.0280338c0.00378014,0 0.00684194,-0.00301189 0.00684194,-0.00672529 1.80851e-007,-0.00371558 -0.00306198,-0.0067271 -0.00684194,-0.0067271 -2.22446e-005,-1.80851e-007 -4.62978e-005,3.61701e-006 -7.03509e-005,3.61701e-006 -0.000607116,-0.00536295 -0.00523328,-0.00953354 -0.0108516,-0.00953354 -0.00443717,-1.80851e-007 -0.00825439,0.0026028 -0.00996487,0.00633845 -5.35318e-005,-1.98936e-006 -0.000107425,-5.60637e-006 -0.000161138,-5.60637e-006 -0.00467589,0 -0.00846887,0.00372824 -0.00846887,0.00832474 1.80851e-007,0.00459831 0.0037928,0.00832474 0.00846887,0.00832474z"/>
   </clipPath>
   <clipPath id="id2">
    <path d="M0.0384098 0.0280561c0.00238434,0 0.00431889,-0.00192154 0.00431889,-0.00429285 1.80851e-007,-0.00236969 -0.00193474,-0.00429104 -0.00431889,-0.00429104 -1.46489e-005,-1.80851e-007 -2.94787e-005,1.80851e-006 -4.44893e-005,1.80851e-006 -0.000385031,-0.00342296 -0.00330432,-0.00608472 -0.00685098,-0.00608472 -0.00280264,-1.80851e-007 -0.00521121,0.00166039 -0.00629035,0.00404473 -3.5085e-005,-1.98936e-006 -6.85424e-005,-3.79786e-006 -0.000103627,-3.79786e-006 -0.00295257,0 -0.00534631,0.00237891 -0.00534631,0.00531285 1.80851e-007,0.00293412 0.00239356,0.00531303 0.00534631,0.00531303z"/>
   </clipPath>
   <clipPath id="id3">
    <path d="M0.00851734 0.0345016l-0.00410766 0.00736948c-0.000233297,0.000418488 -0.000657573,0.000653594 -0.00109433,0.000653594 -0.000214489,0 -0.000433318,-5.55212e-005 -0.000631169,-0.000175787 -0.000605126,-0.000361159 -0.000812743,-0.0011607 -0.000462978,-0.00178825l0.00410802 -0.00736966c0.000348138,-0.000625743 0.00112164,-0.000840232 0.00172513,-0.000477446 0.000605488,0.000360978 0.000812562,0.0011607 0.000462978,0.00178807zm0.00703599 0l-0.00410766 0.00736948c-0.000233297,0.000418488 -0.000657211,0.000653594 -0.00109415,0.000653594 -0.00021467,0 -0.000433137,-5.55212e-005 -0.000631169,-0.000175787 -0.000605126,-0.000361159 -0.000812562,-0.0011607 -0.000462797,-0.00178825l0.00410784 -0.00736966c0.000348138,-0.000625743 0.00112182,-0.000840232 0.00172532,-0.000477446 0.000605126,0.000360978 0.000812562,0.0011607 0.000462616,0.00178807zm0.00703654 0l-0.00410766 0.00736948c-0.000233297,0.000418488 -0.000659382,0.000653594 -0.00109614,0.000653594 -0.00021268,0 -0.000431329,-5.55212e-005 -0.00062936,-0.000175787 -0.000605126,-0.000361159 -0.000812743,-0.0011607 -0.000462797,-0.00178825l0.00410603 -0.00736966c0.000349584,-0.000625743 0.00112164,-0.000840232 0.00172694,-0.000477446 0.000605488,0.000360978 0.000810754,0.0011607 0.000462978,0.00178807z"/>
   </clipPath>
 </defs>
 <g id="Layer_x0020_1">
  <metadata id="CorelCorpID_0Corel-Layer"/>
  <g style="clip-path:url(#id0)">
   <image transform="matrix(1 0 0 -1 -0.195228 -0.124407)" x="-0.465089" y="-0.489994" width="1.16756" height="0.602911" xlink:href="icon_rain_night_Images\icon_rain_night_ImgID1.png"/>
  </g>
  <g style="clip-path:url(#id1)">
   <image transform="matrix(1 0 0 -1 -0.195228 -0.124407)" x="-0.465089" y="-0.489994" width="1.16756" height="0.602911" xlink:href="icon_rain_night_Images\icon_rain_night_ImgID2.png"/>
  </g>
  <g style="clip-path:url(#id2)">
   <image transform="matrix(1 0 0 -1 -0.195228 -0.124407)" x="-0.465089" y="-0.489994" width="1.16756" height="0.602911" xlink:href="icon_rain_night_Images\icon_rain_night_ImgID3.png"/>
  </g>
  <g style="clip-path:url(#id3)">
   <image transform="matrix(1 0 0 -1 -0.195228 -0.124407)" x="-0.465089" y="-0.489994" width="1.16756" height="0.602911" xlink:href="icon_rain_night_Images\icon_rain_night_ImgID4.png"/>
  </g>
 </g>
</svg>
