<?xml version="1.0" encoding="UTF-8"?>
<!DOCTYPE svg PUBLIC "-//W3C//DTD SVG 1.1//EN" "http://www.w3.org/Graphics/SVG/1.1/DTD/svg11.dtd">
<!-- Creator: CorelDRAW -->
<svg xmlns="http://www.w3.org/2000/svg" xml:space="preserve" width="0.930134in" height="0.583205in" style="shape-rendering:geometricPrecision; text-rendering:geometricPrecision; image-rendering:optimizeQuality; fill-rule:evenodd; clip-rule:evenodd"
viewBox="0 0 0.0732866 0.0459516"
 xmlns:xlink="http://www.w3.org/1999/xlink">
 <defs>
   <clipPath id="id0">
    <path d="M0.0678605 0.0142215c0,0.00785526 -0.0063697,0.014225 -0.0142253,0.014225 -0.00785526,-3.10203e-007 -0.0142215,-0.00636939 -0.0142215,-0.014225 3.10203e-007,-0.00785557 0.00636629,-0.0142215 0.0142215,-0.0142215 0.00785557,0 0.014225,0.00636629 0.0142253,0.0142215z"/>
   </clipPath>
   <clipPath id="id1">
    <path d="M0.0506257 0.04591c0.00648354,0 0.0117384,-0.0051627 0.0117384,-0.0115355 3.10203e-007,-0.00636939 -0.00525483,-0.0115352 -0.0117387,-0.0115352 -3.78447e-005,-3.10203e-007 -7.94119e-005,6.20405e-006 -0.000117567,6.20405e-006 -0.00104445,-0.00920185 -0.00897944,-0.0163554 -0.0186162,-0.0163554 -0.00761051,0 -0.0141583,0.00446444 -0.0170891,0.010872 -9.46118e-005,-3.41223e-006 -0.00018426,-6.51425e-006 -0.000279182,-6.51425e-006 -0.00802029,0 -0.0145234,0.00639172 -0.0145234,0.0142789 3.10203e-007,0.0078838 0.00650247,0.0142758 0.0145234,0.0142758z"/>
   </clipPath>
   <clipPath id="id2">
    <path d="M0.0658793 0.0459512c0.00409281,0 0.00740733,-0.003299 0.00740733,-0.00736297 3.10203e-007,-0.00406769 -0.00331483,-0.00736359 -0.00740764,-0.00736359 -2.51264e-005,0 -5.08732e-005,3.41223e-006 -7.59996e-005,3.41223e-006 -0.000660732,-0.0058712 -0.00566802,-0.0104371 -0.0117517,-0.0104371 -0.0048069,0 -0.00893818,0.00284828 -0.0107892,0.00693799 -6.01793e-005,0 -0.000117567,-3.41223e-006 -0.000174644,-3.41223e-006 -0.00506406,0 -0.0091699,0.00408041 -0.0091699,0.00911313 0,0.00503242 0.00410553,0.00911282 0.0091699,0.00911282z"/>
   </clipPath>
 </defs>
 <g id="Layer_x0020_1">
  <metadata id="CorelCorpID_0Corel-Layer"/>
  <g style="clip-path:url(#id0)">
   <image transform="matrix(1 0 0 -1 -0.334864 -0.556975)" x="-0.465067" y="-1.01225" width="2.00264" height="1.03414" xlink:href="icon_partly_cloudy_Images\icon_partly_cloudy_ImgID1.png"/>
  </g>
  <g style="clip-path:url(#id1)">
   <image transform="matrix(1 0 0 -1 -0.334864 -0.556975)" x="-0.465067" y="-1.01225" width="2.00264" height="1.03414" xlink:href="icon_partly_cloudy_Images\icon_partly_cloudy_ImgID2.png"/>
  </g>
  <g style="clip-path:url(#id2)">
   <image transform="matrix(1 0 0 -1 -0.334864 -0.556975)" x="-0.465067" y="-1.01225" width="2.00264" height="1.03414" xlink:href="icon_partly_cloudy_Images\icon_partly_cloudy_ImgID3.png"/>
  </g>
 </g>
</svg>
