<?xml version="1.0" encoding="UTF-8"?>
<!DOCTYPE svg PUBLIC "-//W3C//DTD SVG 1.1//EN" "http://www.w3.org/Graphics/SVG/1.1/DTD/svg11.dtd">
<!-- Creator: CorelDRAW -->
<svg xmlns="http://www.w3.org/2000/svg" xml:space="preserve" width="0.930181in" height="0.859453in" style="shape-rendering:geometricPrecision; text-rendering:geometricPrecision; image-rendering:optimizeQuality; fill-rule:evenodd; clip-rule:evenodd"
viewBox="0 0 0.255363 0.235946"
 xmlns:xlink="http://www.w3.org/1999/xlink">
 <defs>
   <clipPath id="id0">
    <path d="M0.0602853 0.208807c-0.0102895,0 -0.0186205,-0.00840775 -0.0186205,-0.0187729 0,-0.0103554 0.00832993,-0.0187642 0.0186194,-0.0187642 0.0102787,0 0.0186194,0.00840883 0.0186194,0.0187642 0,0.0103651 -0.00834182,0.018774 -0.0186183,0.0187729zm0.107567 0c-0.0102776,0 -0.0186086,-0.00840775 -0.0186086,-0.0187729 0,-0.0103554 0.00832993,-0.0187642 0.0186086,-0.0187642 0.0102895,0 0.0186194,0.00840883 0.0186194,0.0187642 0,0.0103651 -0.00833101,0.018774 -0.0186194,0.0187729zm-0.0519305 0.0271385c-0.0102787,0 -0.0186194,-0.00839694 -0.0186194,-0.0187632 0,-0.0103662 0.00834074,-0.0187632 0.0186183,-0.0187632 0.0102895,0 0.0186194,0.00839694 0.0186194,0.0187632 1.08083e-006,0.0103662 -0.00832993,0.0187642 -0.0186183,0.0187632z"/>
   </clipPath>
   <clipPath id="id1">
    <path d="M0.176405 0.13735c0.0225904,0 0.0408888,-0.0179893 0.0408888,-0.0401927 1.08083e-006,-0.0222034 -0.0182984,-0.0401927 -0.0408898,-0.0401927 -0.000142669,0 -0.000276692,1.08083e-005 -0.000420442,1.08083e-005 -0.00362834,-0.0320508 -0.0312759,-0.0569758 -0.0648528,-0.0569758 -0.0265181,0 -0.0493311,0.0155553 -0.0595536,0.0378808 -0.000319925,-1.08083e-005 -0.00064093,-2.16165e-005 -0.000961936,-2.16165e-005 -0.0279448,-1.08083e-006 -0.0506151,0.0222704 -0.0506151,0.0497396 1.08083e-006,0.0274811 0.0226693,0.0497515 0.0506151,0.0497515z"/>
   </clipPath>
   <clipPath id="id2">
    <path d="M0.229551 0.137482c0.0142507,0 0.0258112,-0.0114827 0.0258112,-0.0256437 0,-0.0141729 -0.0115616,-0.0256556 -0.0258112,-0.0256556 -8.7547e-005,0 -0.000176175,1.08083e-005 -0.000264803,1.08083e-005 -0.00230108,-0.0204557 -0.0197489,-0.0363644 -0.0409568,-0.0363644 -0.0167377,0 -0.0311311,0.00992415 -0.0375814,0.0241727 -0.00020968,0 -0.000409633,-2.16165e-005 -0.000620395,-2.16165e-005 -0.0176445,0 -0.0319503,0.0142161 -0.0319503,0.0317514 1.08083e-006,0.0175353 0.0143047,0.0317514 0.0319503,0.0317514z"/>
   </clipPath>
 </defs>
 <g id="Layer_x0020_1">
  <metadata id="CorelCorpID_0Corel-Layer"/>
  <g style="clip-path:url(#id0)">
   <image transform="matrix(1 0 0 -1 -1.16675 -1.94775)" x="-0.465091" y="-3.5305" width="6.97773" height="3.60321" xlink:href="icon_hail_Images\icon_hail_ImgID1.png"/>
  </g>
  <g style="clip-path:url(#id1)">
   <image transform="matrix(1 0 0 -1 -1.16675 -1.94775)" x="-0.465091" y="-3.5305" width="6.97773" height="3.60321" xlink:href="icon_hail_Images\icon_hail_ImgID2.png"/>
  </g>
  <g style="clip-path:url(#id2)">
   <image transform="matrix(1 0 0 -1 -1.16675 -1.94775)" x="-0.465091" y="-3.5305" width="6.97773" height="3.60321" xlink:href="icon_hail_Images\icon_hail_ImgID3.png"/>
  </g>
 </g>
</svg>
