<?xml version="1.0" encoding="UTF-8"?>
<!DOCTYPE svg PUBLIC "-//W3C//DTD SVG 1.1//EN" "http://www.w3.org/Graphics/SVG/1.1/DTD/svg11.dtd">
<!-- Creator: CorelDRAW -->
<svg xmlns="http://www.w3.org/2000/svg" xml:space="preserve" width="0.930181in" height="0.500795in" style="shape-rendering:geometricPrecision; text-rendering:geometricPrecision; image-rendering:optimizeQuality; fill-rule:evenodd; clip-rule:evenodd"
viewBox="0 0 0.0539856 0.029065"
 xmlns:xlink="http://www.w3.org/1999/xlink">
 <defs>
   <clipPath id="id0">
    <path d="M0.0372933 0.0290369c0.00477349,0 0.00864419,-0.00380535 0.00864419,-0.00849704 2.28495e-007,-0.00469443 -0.00387093,-0.00849932 -0.00864442,-0.00849932 -3.01613e-005,-2.28495e-007 -5.84947e-005,4.5699e-006 -8.88845e-005,4.5699e-006 -0.000769342,-0.00677579 -0.00661424,-0.0120451 -0.0137127,-0.0120451 -0.00560612,-2.28495e-007 -0.0104267,0.0032885 -0.0125878,0.00800829 -6.76345e-005,-2.51344e-006 -0.000135497,-7.08334e-006 -0.00020336,-7.08334e-006 -0.00591002,0 -0.0107004,0.00471042 -0.0107004,0.0105178 4.5699e-007,0.00580971 0.00479017,0.0105178 0.0107004,0.0105178z"/>
   </clipPath>
   <clipPath id="id1">
    <path d="M0.0485268 0.029065c0.00301476,0 0.00545874,-0.00242776 0.00545874,-0.00542378 2.28495e-007,-0.00299397 -0.00244421,-0.0054215 -0.00545897,-0.0054215 -1.85081e-005,-2.28495e-007 -3.74732e-005,2.28495e-006 -5.62097e-005,2.28495e-006 -0.000483724,-0.00432472 -0.00417483,-0.00768771 -0.00865607,-0.00768771 -0.00353847,-2.28495e-007 -0.00658385,0.00209781 -0.00794751,0.00511029 -4.18146e-005,-2.51344e-006 -8.40861e-005,-4.79839e-006 -0.000128414,-4.79839e-006 -0.00373018,0 -0.00675477,0.00300562 -0.00675477,0.00671249 2.28495e-007,0.0037071 0.00302413,0.00671272 0.00675477,0.00671272z"/>
   </clipPath>
 </defs>
 <g id="Layer_x0020_1">
  <metadata id="CorelCorpID_0Corel-Layer"/>
  <g style="clip-path:url(#id0)">
   <image transform="matrix(1 0 0 -1 -0.24666 -0.169946)" x="-0.465091" y="-0.625463" width="1.47514" height="0.761745" xlink:href="icon_mostly_cloudy_Images\icon_mostly_cloudy_ImgID1.png"/>
  </g>
  <g style="clip-path:url(#id1)">
   <image transform="matrix(1 0 0 -1 -0.24666 -0.169946)" x="-0.465091" y="-0.625463" width="1.47514" height="0.761745" xlink:href="icon_mostly_cloudy_Images\icon_mostly_cloudy_ImgID2.png"/>
  </g>
 </g>
</svg>
