<?xml version="1.0" encoding="UTF-8"?>
<!DOCTYPE svg PUBLIC "-//W3C//DTD SVG 1.1//EN" "http://www.w3.org/Graphics/SVG/1.1/DTD/svg11.dtd">
<!-- Creator: CorelDRAW -->
<svg xmlns="http://www.w3.org/2000/svg" xml:space="preserve" width="0.930177in" height="0.902937in" style="shape-rendering:geometricPrecision; text-rendering:geometricPrecision; image-rendering:optimizeQuality; fill-rule:evenodd; clip-rule:evenodd"
viewBox="0 0 0.0427287 0.0414774"
 xmlns:xlink="http://www.w3.org/1999/xlink">
 <defs>
   <clipPath id="id0">
    <path d="M0.0307647 0.0310607c0,0.00175118 -0.00142004,0.00317122 -0.0031714,0.00317122 -0.001751,-1.80851e-007 -0.00317085,-0.00141986 -0.00317085,-0.00317104 1.80851e-007,-0.00175317 0.00141968,-0.00317302 0.00317085,-0.00317302 0.00175136,-1.80851e-007 0.00317104,0.00141986 0.0031714,0.00317284z"/>
   </clipPath>
   <clipPath id="id1">
    <path d="M0.0295168 0.0229823c0.00378014,0 0.00684194,-0.00301008 0.00684194,-0.00672529 1.80851e-007,-0.00371522 -0.00306198,-0.00672529 -0.00684194,-0.00672529 -2.22446e-005,0 -4.62978e-005,1.80851e-006 -7.03509e-005,1.80851e-006 -0.000607116,-0.00536295 -0.00523328,-0.00953354 -0.0108516,-0.00953354 -0.00443717,0 -0.00825439,0.0026028 -0.00996487,0.00633845 -5.35318e-005,-1.80851e-006 -0.000107425,-3.61701e-006 -0.000161138,-3.61701e-006 -0.00467589,-1.80851e-007 -0.00846887,0.00372643 -0.00846887,0.00832275 1.80851e-007,0.00459831 0.0037928,0.00832474 0.00846887,0.00832474z"/>
   </clipPath>
   <clipPath id="id2">
    <path d="M0.0384098 0.0230044c0.00238434,0 0.00431889,-0.00192136 0.00431889,-0.00429086 1.80851e-007,-0.00237149 -0.00193474,-0.00429285 -0.00431889,-0.00429285 -1.46489e-005,0 -2.94787e-005,1.80851e-006 -4.44893e-005,1.80851e-006 -0.000385031,-0.00342278 -0.00330432,-0.00608472 -0.00685098,-0.00608472 -0.00280264,0 -0.00521121,0.00166057 -0.00629035,0.00404473 -3.5085e-005,0 -6.85424e-005,-3.61701e-006 -0.000103627,-3.61701e-006 -0.00295257,0 -0.00534631,0.00237873 -0.00534631,0.00531285 1.80851e-007,0.00293412 0.00239356,0.00531285 0.00534631,0.00531285z"/>
   </clipPath>
   <clipPath id="id3">
    <path d="M0.00703256 0.0312199c-0.000705137,0 -0.00127554,-0.000564435 -0.00127554,-0.00125872 1.80851e-007,-0.000696094 0.000570222,-0.00126053 0.00127554,-0.00126053 0.000705318,-1.80851e-007 0.00127536,0.000564616 0.00127536,0.00126053 1.80851e-007,0.000694105 -0.000570041,0.0012589 -0.00127536,0.00125872zm0.00637915 0c-0.000703509,0 -0.00127554,-0.000564435 -0.00127554,-0.00125872 0,-0.000696094 0.000572031,-0.00126053 0.00127536,-0.00126053 0.000705679,-1.80851e-007 0.00127735,0.000564616 0.00127735,0.00126053 0,0.000694105 -0.000572031,0.0012589 -0.00127717,0.00125872zm0.00638113 0c-0.000705498,0 -0.00127753,-0.000564435 -0.00127753,-0.00125872 1.80851e-007,-0.000696094 0.000572031,-0.00126053 0.00127717,-0.00126053 0.00070369,-1.80851e-007 0.00127554,0.000564616 0.00127554,0.00126053 1.80851e-007,0.000694105 -0.000572031,0.0012589 -0.00127518,0.00125872zm-0.0127603 0.0102575c-0.000705137,0 -0.00127554,-0.000564616 -0.00127554,-0.00126071 1.80851e-007,-0.000696094 0.000570222,-0.00125872 0.00127554,-0.00125872 0.000705318,-1.80851e-007 0.00127536,0.000562807 0.00127536,0.00125872 1.80851e-007,0.000695913 -0.000570041,0.00126071 -0.00127536,0.00126071zm0.00637915 0c-0.000703509,0 -0.00127554,-0.000564616 -0.00127554,-0.00126071 0,-0.000696094 0.000572031,-0.00125872 0.00127536,-0.00125872 0.000705679,-1.80851e-007 0.00127735,0.000562807 0.00127735,0.00125872 0,0.000695913 -0.000572031,0.00126071 -0.00127717,0.00126071zm-0.0031893 -0.00504085c-0.000705318,0 -0.00127572,-0.000562626 -0.00127572,-0.00125872 1.80851e-007,-0.000696094 0.000570222,-0.00126071 0.00127536,-0.00126071 0.000705498,0 0.00127554,0.000564616 0.00127554,0.00126071 1.80851e-007,0.000696094 -0.000570222,0.00125872 -0.00127518,0.00125872zm0.00638077 0c-0.000705318,0 -0.00127753,-0.000562626 -0.00127753,-0.00125872 1.80851e-007,-0.000696094 0.000572031,-0.00126071 0.00127735,-0.00126071 0.000703509,0 0.00127554,0.000564616 0.00127554,0.00126071 0,0.000696094 -0.000572031,0.00125872 -0.00127536,0.00125872z"/>
   </clipPath>
 </defs>
 <g id="Layer_x0020_1">
  <metadata id="CorelCorpID_0Corel-Layer"/>
  <g style="clip-path:url(#id0)">
   <image transform="matrix(1 0 0 -1 -0.195228 -0.325909)" x="-0.465089" y="-0.590746" width="1.16756" height="0.602911" xlink:href="icon_blizzard_Images\icon_blizzard_ImgID1.png"/>
  </g>
  <g style="clip-path:url(#id1)">
   <image transform="matrix(1 0 0 -1 -0.195228 -0.325909)" x="-0.465089" y="-0.590746" width="1.16756" height="0.602911" xlink:href="icon_blizzard_Images\icon_blizzard_ImgID2.png"/>
  </g>
  <g style="clip-path:url(#id2)">
   <image transform="matrix(1 0 0 -1 -0.195228 -0.325909)" x="-0.465089" y="-0.590746" width="1.16756" height="0.602911" xlink:href="icon_blizzard_Images\icon_blizzard_ImgID3.png"/>
  </g>
  <g style="clip-path:url(#id3)">
   <image transform="matrix(1 0 0 -1 -0.195228 -0.325909)" x="-0.465089" y="-0.590746" width="1.16756" height="0.602911" xlink:href="icon_blizzard_Images\icon_blizzard_ImgID4.png"/>
  </g>
 </g>
</svg>
