<?xml version="1.0" encoding="UTF-8"?>
<!DOCTYPE svg PUBLIC "-//W3C//DTD SVG 1.1//EN" "http://www.w3.org/Graphics/SVG/1.1/DTD/svg11.dtd">
<!-- Creator: CorelDRAW -->
<svg xmlns="http://www.w3.org/2000/svg" xml:space="preserve" width="0.930181in" height="0.939606in" style="shape-rendering:geometricPrecision; text-rendering:geometricPrecision; image-rendering:optimizeQuality; fill-rule:evenodd; clip-rule:evenodd"
viewBox="0 0 0.255363 0.25795"
 xmlns:xlink="http://www.w3.org/1999/xlink">
 <defs>
   <clipPath id="id0">
    <path d="M0.158825 0.15619c-0.00632824,0 -0.0140951,0.00449192 -0.0172597,0.00997927l-0.0202007 0.0350372c-0.00316358,0.00549708 -0.000586889,0.00960315 0.00571865,0.00913839l0.0165075 -0.00121809c0.00630662,-0.000464755 0.00899356,0.00371804 0.00597373,0.00929403l-0.0183535 0.033831c-0.00302091,0.0055641 -0.00149478,0.0068265 0.00339596,0.00279934l0.0663574 -0.0546639c0.00488966,-0.00402824 0.00371696,-0.0070578 -0.00260047,-0.00673679l-0.0253562 0.00130456c-0.00632824,0.000321006 -0.00890601,-0.00390503 -0.00574243,-0.00939238l0.0111639 -0.0193608c0.00316358,-0.00548844 0.000575,-0.009989 -0.00575324,-0.009989l-0.0138508 -2.26974e-005z"/>
   </clipPath>
   <clipPath id="id1">
    <path d="M0.200943 0.110322c-0.0309992,0 -0.0562127,-0.0252124 -0.0562127,-0.0562116 0,-0.0249163 0.0167269,-0.0471186 0.0406899,-0.0540003 0.00103976,-0.000288581 0.00213571,0 0.00289878,0.000752255 0.000752255,0.000752255 0.00103976,0.00185902 0.000741447,0.00289878 -0.00131645,0.00459027 -0.00198007,0.00925944 -0.00198007,0.0138951 0,0.0277459 0.0225687,0.0503157 0.0503157,0.0503157 0.00462486,0 0.00929187,-0.000663628 0.0138951,-0.00199088 0.00103003,-0.000289662 0.00213463,0 0.00289878,0.000752255 0.000751175,0.000761983 0.00103976,0.00186983 0.000740366,0.00289878 -0.00688054,0.0239608 -0.0290732,0.0406899 -0.0539873,0.0406899z"/>
   </clipPath>
   <clipPath id="id2">
    <path d="M0.176405 0.171358c0.0225904,0 0.0408888,-0.017999 0.0408888,-0.0402035 1.08083e-006,-0.0221937 -0.0182984,-0.0401927 -0.0408898,-0.0401927 -0.000142669,0 -0.000276692,2.26974e-005 -0.000420442,2.26974e-005 -0.00362834,-0.0320627 -0.0312759,-0.0569866 -0.0648528,-0.0569866 -0.0265181,-1.08083e-006 -0.0493311,0.0155553 -0.0595536,0.0378797 -0.000319925,0 -0.00064093,-2.16165e-005 -0.000961936,-2.16165e-005 -0.0279448,-2.16165e-006 -0.0506151,0.0222704 -0.0506151,0.0497515 1.08083e-006,0.0274692 0.0226693,0.0497515 0.0506151,0.0497515z"/>
   </clipPath>
   <clipPath id="id3">
    <path d="M0.229551 0.17149c0.0142507,0 0.0258112,-0.0114827 0.0258112,-0.0256556 0,-0.0141718 -0.0115616,-0.0256556 -0.0258112,-0.0256556 -8.7547e-005,0 -0.000176175,1.18891e-005 -0.000264803,1.18891e-005 -0.00230108,-0.0204579 -0.0197489,-0.0363655 -0.0409568,-0.0363655 -0.0167377,0 -0.0311311,0.00992415 -0.0375814,0.0241738 -0.00020968,-2.16165e-006 -0.000409633,-1.18891e-005 -0.000620395,-1.18891e-005 -0.0176445,-1.08083e-006 -0.0319503,0.0142172 -0.0319503,0.0317514 1.08083e-006,0.0175343 0.0143047,0.0317525 0.0319503,0.0317525z"/>
   </clipPath>
   <clipPath id="id4">
    <path d="M0.0516224 0.20999l-0.0250925 0.0440426c-0.0014375,0.00251184 -0.00402716,0.003918 -0.00670437,0.003918 -0.00130456,-1.08083e-006 -0.00263289,-0.000342622 -0.0038499,-0.00105164 -0.00369427,-0.00216922 -0.00495667,-0.00694755 -0.00282096,-0.0106969l0.0250914 -0.0440448c0.00212491,-0.00373858 0.00685893,-0.00502152 0.0105435,-0.00286419 0.00369535,0.00216706 0.00495559,0.00694755 0.00283285,0.0106969zm0.0410563 0l-0.0250925 0.0440426c-0.00142669,0.00251184 -0.00402716,0.003918 -0.00669356,0.003918 -0.00131537,-1.08083e-006 -0.00264478,-0.000342622 -0.00386179,-0.00105164 -0.00368238,-0.00216922 -0.00495559,-0.00694755 -0.00282096,-0.0106969l0.0250925 -0.0440448c0.00213463,-0.00373858 0.00685893,-0.00502152 0.0105424,-0.00286419 0.00369535,0.00216706 0.00496748,0.00694755 0.00283393,0.0106969z"/>
   </clipPath>
 </defs>
 <g id="Layer_x0020_1">
  <metadata id="CorelCorpID_0Corel-Layer"/>
  <g style="clip-path:url(#id0)">
   <image transform="matrix(1 0 0 -1 -1.16675 0.507138)" x="-0.465091" y="-2.30306" width="6.97773" height="3.60321" xlink:href="icon_mix_rainfall_night_Images\icon_mix_rainfall_night_ImgID1.png"/>
  </g>
  <g style="clip-path:url(#id1)">
   <image transform="matrix(1 0 0 -1 -1.16675 0.507138)" x="-0.465091" y="-2.30306" width="6.97773" height="3.60321" xlink:href="icon_mix_rainfall_night_Images\icon_mix_rainfall_night_ImgID2.png"/>
  </g>
  <g style="clip-path:url(#id2)">
   <image transform="matrix(1 0 0 -1 -1.16675 0.507138)" x="-0.465091" y="-2.30306" width="6.97773" height="3.60321" xlink:href="icon_mix_rainfall_night_Images\icon_mix_rainfall_night_ImgID3.png"/>
  </g>
  <g style="clip-path:url(#id3)">
   <image transform="matrix(1 0 0 -1 -1.16675 0.507138)" x="-0.465091" y="-2.30306" width="6.97773" height="3.60321" xlink:href="icon_mix_rainfall_night_Images\icon_mix_rainfall_night_ImgID4.png"/>
  </g>
  <g style="clip-path:url(#id4)">
   <image transform="matrix(1 0 0 -1 -1.16675 0.507138)" x="-0.465091" y="-2.30306" width="6.97773" height="3.60321" xlink:href="icon_mix_rainfall_night_Images\icon_mix_rainfall_night_ImgID5.png"/>
  </g>
 </g>
</svg>
