<?xml version="1.0" encoding="UTF-8"?>
<!DOCTYPE svg PUBLIC "-//W3C//DTD SVG 1.1//EN" "http://www.w3.org/Graphics/SVG/1.1/DTD/svg11.dtd">
<!-- Creator: CorelDRAW -->
<svg xmlns="http://www.w3.org/2000/svg" xml:space="preserve" width="0.902933in" height="0.472465in" style="shape-rendering:geometricPrecision; text-rendering:geometricPrecision; image-rendering:optimizeQuality; fill-rule:evenodd; clip-rule:evenodd"
viewBox="0 0 0.0332787 0.0174132"
 xmlns:xlink="http://www.w3.org/1999/xlink">
 <defs>
   <clipPath id="id0">
    <path d="M0.0252482 0.0174132c-0.00144479,0 -0.00261723,-0.00116735 -0.00261723,-0.00260808 4.35309e-007,-0.000350569 7.26967e-005,-0.000683291 0.000197485,-0.000989168l-0.0149758 -1.45103e-007c-0.000448659,0 -0.000812578,-0.000362323 -0.000812578,-0.000809385 0,-0.000447208 0.000363919,-0.000810981 0.000812578,-0.000810981l0.01733 0c1.03023e-005,0 2.07498e-005,3.04717e-006 3.26482e-005,4.4982e-006 1.04474e-005,0 2.07498e-005,-4.4982e-006 3.26482e-005,-4.4982e-006 0.00144523,0 0.00261548,0.00116895 0.00261548,0.00260968 4.35309e-007,0.00144058 -0.00117026,0.00260808 -0.00261519,0.00260808zm0.00541496 -0.00447817c-0.00144479,0 -0.00261548,-0.00116735 -0.00261548,-0.00260794 4.35309e-007,-0.000350569 7.12456e-005,-0.000683291 0.000196034,-0.000989313l-0.0274312 0c-0.000448659,0 -0.000812578,-0.000362323 -0.000812578,-0.000809385 0,-0.000447208 0.000363919,-0.000810981 0.000812433,-0.000810981l0.0297858 -1.45103e-007c1.03023e-005,0 2.06046e-005,3.19227e-006 3.2358e-005,4.6433e-006 1.07376e-005,-1.45103e-007 2.07498e-005,-4.4982e-006 3.26482e-005,-4.4982e-006 0.00144552,-1.45103e-007 0.00261548,0.00116895 0.00261548,0.00260968 1.45103e-007,0.00144058 -0.00117026,0.00260808 -0.00261548,0.00260794zm-0.00541496 -0.00771731c-1.20436e-005,0 -2.26361e-005,-2.90206e-006 -3.29384e-005,-2.90206e-006 -1.1318e-005,-1.45103e-007 -2.23459e-005,2.90206e-006 -3.26482e-005,2.90206e-006l-0.0119144 0c-0.000448514,0 -0.000812868,-0.000362323 -0.000812868,-0.000810981 2.90206e-007,-0.000447063 0.000363919,-0.000809385 0.000812433,-0.000809385l0.00956114 0c-0.000124934,-0.000306168 -0.000197921,-0.000638744 -0.000197921,-0.000989168 4.35309e-007,-0.00144073 0.00117185,-0.00260823 0.00261694,-0.00260823 0.00144523,0 0.00261548,0.0011675 0.00261548,0.00260823 4.35309e-007,0.00144058 -0.00117026,0.00260954 -0.00261519,0.00260954z"/>
   </clipPath>
 </defs>
 <g id="Layer_x0020_1">
  <metadata id="CorelCorpID_0Corel-Layer"/>
  <g style="clip-path:url(#id0)">
   <image transform="matrix(1 0 0 -1 -0.156639 -0.265606)" x="-0.451467" y="-0.476036" width="0.936774" height="0.483738" xlink:href="icon_breezy_Images\icon_breezy_ImgID1.png"/>
  </g>
 </g>
</svg>
