<?xml version="1.0" encoding="UTF-8"?>
<!DOCTYPE svg PUBLIC "-//W3C//DTD SVG 1.1//EN" "http://www.w3.org/Graphics/SVG/1.1/DTD/svg11.dtd">
<!-- Creator: CorelDRAW -->
<svg xmlns="http://www.w3.org/2000/svg" xml:space="preserve" width="0.930177in" height="0.624654in" style="shape-rendering:geometricPrecision; text-rendering:geometricPrecision; image-rendering:optimizeQuality; fill-rule:evenodd; clip-rule:evenodd"
viewBox="0 0 0.0263081 0.017667"
 xmlns:xlink="http://www.w3.org/1999/xlink">
 <defs>
   <clipPath id="id0">
    <path d="M0.0207006 0.0113653c-0.00319241,0 -0.00579132,-0.00259757 -0.00579132,-0.00579121 3.3405e-007,-0.00256673 0.00172448,-0.0048542 0.00419211,-0.00556205 0.000108566,-3.0844e-005 0.00022103,-1.1135e-006 0.00029853,7.63862e-005 7.87245e-005,7.86132e-005 0.000108344,0.000192636 7.74997e-005,0.000298641 -0.00013529,0.000473015 -0.000205107,0.000955161 -0.000205107,0.00143152 0,0.00285847 0.00232621,0.00518479 0.00518479,0.00518479 0.000475799,0 0.000957499,-6.94825e-005 0.00143163,-0.000205107 0.000106117,-2.97305e-005 0.000219916,-1.22485e-006 0.000297416,7.74997e-005 7.86132e-005,7.74997e-005 0.000108344,0.000191411 7.74997e-005,0.000297527 -0.000708521,0.00246863 -0.00299643,0.004192 -0.00556305,0.004192z"/>
   </clipPath>
   <clipPath id="id1">
    <path d="M0.0181738 0.0176533c0.00232621,0 0.00421248,-0.00185431 0.00421248,-0.00414078 3.3405e-007,-0.00228746 -0.00188638,-0.00414189 -0.0042126,-0.00414189 -1.44755e-005,0 -2.85056e-005,2.33835e-006 -4.33152e-005,2.33835e-006 -0.000374693,-0.00330198 -0.00322225,-0.00586982 -0.00668245,-0.00586982 -0.00273175,0 -0.00508113,0.00160133 -0.00613428,0.00390137 -3.29596e-005,0 -6.61419e-005,-2.227e-006 -9.92129e-005,-2.227e-006 -0.00287996,-1.1135e-007 -0.00521441,0.00229548 -0.00521441,0.00512556 2.227e-007,0.00283108 0.00233423,0.00512556 0.00521441,0.00512556z"/>
   </clipPath>
   <clipPath id="id2">
    <path d="M0.0236482 0.017667c0.00146904,0 0.00265993,-0.00118309 0.00265993,-0.00264312 0,-0.00145891 -0.001191,-0.00264312 -0.00266015,-0.00264312 -9.01936e-006,0 -1.82614e-005,1.1135e-006 -2.73921e-005,2.33835e-006 -0.000235728,-0.00210864 -0.00203459,-0.0037476 -0.00421828,-0.0037476 -0.00172437,0 -0.00320844,0.00102353 -0.00387298,0.00249157 -2.03771e-005,-1.22485e-006 -4.09768e-005,-2.33835e-006 -6.26901e-005,-2.33835e-006 -0.00181768,0 -0.00329162,0.00146459 -0.00329162,0.00327113 1.1135e-007,0.00180654 0.00147372,0.00327113 0.00329162,0.00327113z"/>
   </clipPath>
 </defs>
 <g id="Layer_x0020_1">
  <metadata id="CorelCorpID_0Corel-Layer"/>
  <g style="clip-path:url(#id0)">
   <image transform="matrix(1 0 0 -1 -0.120202 -0.194443)" x="-0.465089" y="-0.360613" width="0.718867" height="0.371213" xlink:href="icon_mostly_cloudy_night_Images\icon_mostly_cloudy_night_ImgID1.png"/>
  </g>
  <g style="clip-path:url(#id1)">
   <image transform="matrix(1 0 0 -1 -0.120202 -0.194443)" x="-0.465089" y="-0.360613" width="0.718867" height="0.371213" xlink:href="icon_mostly_cloudy_night_Images\icon_mostly_cloudy_night_ImgID2.png"/>
  </g>
  <g style="clip-path:url(#id2)">
   <image transform="matrix(1 0 0 -1 -0.120202 -0.194443)" x="-0.465089" y="-0.360613" width="0.718867" height="0.371213" xlink:href="icon_mostly_cloudy_night_Images\icon_mostly_cloudy_night_ImgID3.png"/>
  </g>
 </g>
</svg>
