<?xml version="1.0" encoding="UTF-8"?>
<!DOCTYPE svg PUBLIC "-//W3C//DTD SVG 1.1//EN" "http://www.w3.org/Graphics/SVG/1.1/DTD/svg11.dtd">
<!-- Creator: CorelDRAW -->
<svg xmlns="http://www.w3.org/2000/svg" xml:space="preserve" width="0.930142in" height="0.827681in" style="shape-rendering:geometricPrecision; text-rendering:geometricPrecision; image-rendering:optimizeQuality; fill-rule:evenodd; clip-rule:evenodd"
viewBox="0 0 0.0301807 0.0268561"
 xmlns:xlink="http://www.w3.org/1999/xlink">
 <defs>
   <clipPath id="id0">
    <path d="M0.0124616 0.0148935c-0.000747824,-1.27746e-006 -0.00166606,0.000529634 -0.00203997,0.0011782l-0.00238757 0.00414241c-0.000374167,0.000648565 -6.94937e-005,0.00113502 0.000675903,0.00108009l0.00195132 -0.000143842c0.000745269,-5.49307e-005 0.00106259,0.00043804 0.000705668,0.00109708l-0.00216785 0.00399857c-0.000357944,0.000657635 -0.00017795,0.00080812 0.000399972,0.000332139l0.00784321 -0.00646202c0.000577922,-0.000476109 0.000439062,-0.000834308 -0.000307484,-0.00079509l-0.00299717 0.000152912c-0.000746291,3.79405e-005 -0.0010525,-0.000461546 -0.000678586,-0.00111011l0.00131949 -0.00228818c0.000374167,-0.000648693 6.79608e-005,-0.00117948 -0.000679991,-0.00118075l-0.00163693 -1.4052e-006z"/>
   </clipPath>
   <clipPath id="id1">
    <path d="M0.0208488 0.0162338c0.00266976,0 0.00483365,-0.0021262 0.00483365,-0.00475048 5.10983e-007,-0.00262428 -0.00216401,-0.00475048 -0.00483416,-0.00475048 -1.52018e-005,0 -3.25752e-005,1.27746e-006 -4.82879e-005,1.27746e-006 -0.000429865,-0.00378817 -0.00369799,-0.00673412 -0.00766654,-0.00673412 -0.00313373,0 -0.00583045,0.00183852 -0.00703739,0.00447723 -3.8707e-005,-1.27746e-006 -7.57533e-005,-2.55492e-006 -0.000115099,-2.55492e-006 -0.00330274,-1.27746e-007 -0.00598093,0.0026322 -0.00598093,0.00587886 2.55492e-007,0.00324806 0.00267806,0.00588027 0.00598093,0.00588027z"/>
   </clipPath>
   <clipPath id="id2">
    <path d="M0.0271304 0.0162494c0.00168522,0 0.00305031,-0.00135717 0.00305031,-0.0030309 2.55492e-007,-0.00167513 -0.00136522,-0.0030323 -0.0030507,-0.0030323 -1.03474e-005,0 -2.09503e-005,1.27746e-006 -3.12977e-005,1.27746e-006 -0.000272099,-0.00241772 -0.00233417,-0.00429801 -0.00483952,-0.00429801 -0.00197929,0 -0.00368087,0.00117296 -0.00444313,0.00285703 -2.45272e-005,0 -4.84157e-005,-2.55492e-006 -7.19209e-005,-2.55492e-006 -0.00208545,0 -0.00377642,0.00168024 -0.00377642,0.00375279 1.27746e-007,0.00207255 0.00169072,0.00375279 0.00377642,0.00375279z"/>
   </clipPath>
 </defs>
 <g id="Layer_x0020_1">
  <metadata id="CorelCorpID_0Corel-Layer"/>
  <g style="clip-path:url(#id0)">
   <image transform="matrix(1 0 0 -1 -0.137902 -0.23021)" x="-0.465071" y="-0.41728" width="0.824716" height="0.425873" xlink:href="icon_severe_thunderstorm_Images\icon_severe_thunderstorm_ImgID1.png"/>
  </g>
  <g style="clip-path:url(#id1)">
   <image transform="matrix(1 0 0 -1 -0.137902 -0.23021)" x="-0.465071" y="-0.41728" width="0.824716" height="0.425873" xlink:href="icon_severe_thunderstorm_Images\icon_severe_thunderstorm_ImgID2.png"/>
  </g>
  <g style="clip-path:url(#id2)">
   <image transform="matrix(1 0 0 -1 -0.137902 -0.23021)" x="-0.465071" y="-0.41728" width="0.824716" height="0.425873" xlink:href="icon_severe_thunderstorm_Images\icon_severe_thunderstorm_ImgID3.png"/>
  </g>
 </g>
</svg>
