<?xml version="1.0" encoding="UTF-8"?>
<!DOCTYPE svg PUBLIC "-//W3C//DTD SVG 1.1//EN" "http://www.w3.org/Graphics/SVG/1.1/DTD/svg11.dtd">
<!-- Creator: CorelDRAW -->
<svg xmlns="http://www.w3.org/2000/svg" xml:space="preserve" width="0.873476in" height="0.569382in" style="shape-rendering:geometricPrecision; text-rendering:geometricPrecision; image-rendering:optimizeQuality; fill-rule:evenodd; clip-rule:evenodd"
viewBox="0 0 0.0265635 0.0173156"
 xmlns:xlink="http://www.w3.org/1999/xlink">
 <defs>
   <clipPath id="id0">
    <path d="M0.0173161 0.00865713c0,0.00478198 -0.00387683,0.00865845 -0.00865881,0.00865845 -0.00478054,0 -0.00865725,-0.00387635 -0.00865725,-0.00865845 2.39458e-007,-0.00478078 0.00387635,-0.00865713 0.00865725,-0.00865713 0.00478234,0 0.00865845,0.00387635 0.00865881,0.00865713z"/>
   </clipPath>
   <clipPath id="id1">
    <path d="M0.0124749 0.00878704l-0.0042699 0c-0.000352602,0 -0.000639713,-0.000290463 -0.000639713,-0.00064953 1.19729e-007,-0.000359068 0.000286751,-0.00064953 0.000639713,-0.00064953l0.0042699 -1.19729e-007c0.000354039,0 0.00064079,0.000290582 0.00064079,0.00064965 2.39458e-007,0.000359068 -0.000286751,0.00064953 -0.00064079,0.00064953zm0.00917951 0l-0.00640491 0c-0.000353081,0 -0.000639952,-0.000290463 -0.000639952,-0.00064953 3.59187e-007,-0.000359068 0.000286871,-0.00064953 0.000639713,-0.00064953l0.00640515 -1.19729e-007c0.000352602,0 0.000639353,0.000290582 0.000639353,0.00064965 2.39458e-007,0.000359068 -0.000286871,0.00064953 -0.000639353,0.00064953zm-0.00917951 0.00628207l-0.0042699 0c-0.000352602,0 -0.000639713,-0.00029154 -0.000639713,-0.000650728 1.19729e-007,-0.000359187 0.000286751,-0.00064953 0.000639713,-0.00064953l0.0042699 0c0.000354039,0 0.00064079,0.000290463 0.00064079,0.00064953 2.39458e-007,0.000359068 -0.000286751,0.000650728 -0.00064079,0.000650728zm0.00917951 0l-0.00640491 0c-0.000353081,0 -0.000639952,-0.00029154 -0.000639952,-0.000650728 3.59187e-007,-0.000359187 0.000286871,-0.00064953 0.000639713,-0.00064953l0.00640515 0c0.000352602,0 0.000639353,0.000290463 0.000639353,0.00064953 2.39458e-007,0.000359068 -0.000286871,0.000650728 -0.000639353,0.000650728zm-0.00490949 -0.00303322l-0.00853992 0c-0.000352602,0 -0.000639713,-0.000290343 -0.000639713,-0.000649411 1.19729e-007,-0.000359187 0.000286751,-0.00064953 0.000639713,-0.00064953l0.00853992 0c0.000352482,0 0.000639353,0.000290463 0.000639353,0.00064953 2.39458e-007,0.000358948 -0.000286871,0.000649411 -0.000639353,0.000649411zm0.00917795 0l-0.00640347 0c-0.000354518,0 -0.000641269,-0.000290343 -0.000641269,-0.000649411 2.39458e-007,-0.000359187 0.000286751,-0.00064953 0.00064103,-0.00064953l0.00640371 0c0.000354039,0 0.000640551,0.000290463 0.000640551,0.00064953 4.78916e-007,0.000358948 -0.000286751,0.000649411 -0.000640551,0.000649411z"/>
   </clipPath>
 </defs>
 <g id="Layer_x0020_1">
  <metadata id="CorelCorpID_0Corel-Layer"/>
  <g style="clip-path:url(#id0)">
   <image transform="matrix(1 0 0 -1 -0.129248 -0.0899519)" x="-0.436738" y="-0.328188" width="0.772961" height="0.399147" xlink:href="icon_haze_Images\icon_haze_ImgID1.png"/>
  </g>
  <g style="clip-path:url(#id1)">
   <image transform="matrix(1 0 0 -1 -0.129248 -0.0899519)" x="-0.436738" y="-0.328188" width="0.772961" height="0.399147" xlink:href="icon_haze_Images\icon_haze_ImgID2.png"/>
  </g>
 </g>
</svg>
