<?xml version="1.0" encoding="UTF-8"?>
<!DOCTYPE svg PUBLIC "-//W3C//DTD SVG 1.1//EN" "http://www.w3.org/Graphics/SVG/1.1/DTD/svg11.dtd">
<!-- Creator: CorelDRAW -->
<svg xmlns="http://www.w3.org/2000/svg" xml:space="preserve" width="0.956795in" height="0.87478in" style="shape-rendering:geometricPrecision; text-rendering:geometricPrecision; image-rendering:optimizeQuality; fill-rule:evenodd; clip-rule:evenodd"
viewBox="0 0 0.0572183 0.0523136"
 xmlns:xlink="http://www.w3.org/1999/xlink">
 <defs>
   <clipPath id="id0">
    <path d="M0.0454328 0.0240329c-0.00675292,0 -0.0122453,-0.00549425 -0.0122453,-0.0122446 0,-0.00542738 0.00364368,-0.0102664 0.00886388,-0.0117629 0.000226494,-6.5688e-005 0.000464996,-2.58985e-006 0.000631217,0.000163867 0.000164338,0.000163396 0.000226494,0.000404723 0.000161512,0.000628863 -0.000286532,0.000999682 -0.000431563,0.00201961 -0.000431563,0.00302683 2.35441e-007,0.00604377 0.00491648,0.0109631 0.0109607,0.0109631 0.00100745,-4.70882e-007 0.00202668,-0.000147151 0.00302683,-0.000433918 0.000226965,-6.28627e-005 0.000467586,0 0.000631453,0.000163867 0.000164102,0.000163396 0.000226494,0.000404958 0.000161277,0.000629098 -0.00149646,0.00521973 -0.00633336,0.00886624 -0.01176,0.00886576z"/>
   </clipPath>
   <clipPath id="id1">
    <path d="M0.0384266 0.0364973c0.00492166,0 0.00890744,-0.0039208 0.00890744,-0.0087577 4.70882e-007,-0.00483454 -0.00398625,-0.00875534 -0.00890744,-0.00875534 -3.10782e-005,0 -6.00374e-005,4.94426e-006 -9.13511e-005,4.94426e-006 -0.000790611,-0.00698436 -0.00681319,-0.0124136 -0.0141272,-0.0124136 -0.00577678,-2.35441e-007 -0.010746,0.00338847 -0.0129728,0.0082515 -6.9926e-005,0 -0.000139852,-4.70882e-006 -0.000209778,-4.70882e-006 -0.00608709,-4.70882e-007 -0.0110255,0.00485126 -0.0110255,0.0108376 2.35441e-007,0.00598373 0.00493814,0.0108376 0.0110255,0.0108376z"/>
   </clipPath>
   <clipPath id="id2">
    <path d="M0.0500044 0.0365263c0.00310405,0 0.00562233,-0.00250132 0.00562233,-0.00558866 0,-0.0030871 -0.00251851,-0.00558866 -0.00562257,-0.00558866 -1.93062e-005,0 -3.86123e-005,2.58985e-006 -5.79185e-005,2.58985e-006 -0.000501018,-0.00445643 -0.00430174,-0.00792165 -0.00892156,-0.00792165 -0.0036458,0 -0.00678164,0.00216182 -0.00818652,0.00526587 -4.54401e-005,-4.70882e-007 -8.92321e-005,-2.58985e-006 -0.000135143,-2.58985e-006 -0.00384381,-2.35441e-007 -0.00695987,0.00309699 -0.00695987,0.00691655 4.70882e-007,0.00381956 0.00311606,0.00691678 0.00695987,0.00691678z"/>
   </clipPath>
   <clipPath id="id3">
    <path d="M0.0179039 0.0456697l-0.00839371 0c-0.00069667,0 -0.00126079,-0.000556582 -0.00126079,-0.00124595 2.35441e-007,-0.000689371 0.000563881,-0.00124595 0.00126032,-0.00124595l0.00839418 -2.35441e-007c0.00069667,0 0.00126008,0.000557053 0.00126008,0.00124619 0,0.0006889 -0.000563881,0.00124595 -0.00126008,0.00124595zm0.0180503 0l-0.0125921 0c-0.000696434,0 -0.00126055,-0.000556582 -0.00126055,-0.00124595 0,-0.000689371 0.000564117,-0.00124595 0.00126055,-0.00124595l0.0125921 -2.35441e-007c0.000694315,0 0.00125773,0.000557053 0.00125773,0.00124619 0,0.0006889 -0.000563881,0.00124595 -0.00125773,0.00124595zm-0.00965426 0.00664391l-0.0167898 0c-0.00069667,0 -0.00126079,-0.000556347 -0.00126079,-0.00124548 2.35441e-007,-0.000687252 0.000563881,-0.00124595 0.00126032,-0.00124595l0.0167902 0c0.000694315,0 0.00125773,0.000559172 0.00125773,0.00124595 4.70882e-007,0.000689136 -0.000563881,0.00124595 -0.00125773,0.00124548zm0.018048 0l-0.0125919 0c-0.000693844,0 -0.00125796,-0.000556347 -0.00125796,-0.00124548 2.35441e-007,-0.000687252 0.000563881,-0.00124595 0.00125796,-0.00124595l0.0125919 0c0.00069667,0 0.00126055,0.000559172 0.00126055,0.00124595 0,0.000689136 -0.000564117,0.00124595 -0.00126055,0.00124548z"/>
   </clipPath>
 </defs>
 <g id="Layer_x0020_1">
  <metadata id="CorelCorpID_0Corel-Layer"/>
  <g style="clip-path:url(#id0)">
   <image transform="matrix(1 0 0 -1 -0.254159 0.108812)" x="-0.478398" y="-0.502515" width="1.51999" height="0.784901" xlink:href="icon_fog_night_Images\icon_fog_night_ImgID1.png"/>
  </g>
  <g style="clip-path:url(#id1)">
   <image transform="matrix(1 0 0 -1 -0.254159 0.108812)" x="-0.478398" y="-0.502515" width="1.51999" height="0.784901" xlink:href="icon_fog_night_Images\icon_fog_night_ImgID2.png"/>
  </g>
  <g style="clip-path:url(#id2)">
   <image transform="matrix(1 0 0 -1 -0.254159 0.108812)" x="-0.478398" y="-0.502515" width="1.51999" height="0.784901" xlink:href="icon_fog_night_Images\icon_fog_night_ImgID3.png"/>
  </g>
  <g style="clip-path:url(#id3)">
   <image transform="matrix(1 0 0 -1 -0.254159 0.108812)" x="-0.478398" y="-0.502515" width="1.51999" height="0.784901" xlink:href="icon_fog_night_Images\icon_fog_night_ImgID4.png"/>
  </g>
 </g>
</svg>
