<?xml version="1.0" encoding="UTF-8"?>
<!DOCTYPE svg PUBLIC "-//W3C//DTD SVG 1.1//EN" "http://www.w3.org/Graphics/SVG/1.1/DTD/svg11.dtd">
<!-- Creator: CorelDRAW -->
<svg xmlns="http://www.w3.org/2000/svg" xml:space="preserve" width="0.930134in" height="0.750929in" style="shape-rendering:geometricPrecision; text-rendering:geometricPrecision; image-rendering:optimizeQuality; fill-rule:evenodd; clip-rule:evenodd"
viewBox="0 0 0.0732866 0.0591668"
 xmlns:xlink="http://www.w3.org/1999/xlink">
 <defs>
   <clipPath id="id0">
    <path d="M0.0506257 0.0394199c0.00648354,0 0.0117384,-0.0051627 0.0117384,-0.0115355 3.10203e-007,-0.00637249 -0.00525483,-0.0115355 -0.0117387,-0.0115355 -3.78447e-005,0 -7.94119e-005,3.41223e-006 -0.000117567,6.51425e-006 -0.00104445,-0.00920185 -0.00897944,-0.0163554 -0.0186162,-0.0163554 -0.00761051,-3.10203e-007 -0.0141583,0.00446444 -0.0170891,0.0108717 -9.46118e-005,-3.10203e-006 -0.00018426,-6.20405e-006 -0.000279182,-6.20405e-006 -0.00802029,0 -0.0145234,0.00639172 -0.0145234,0.0142789 3.10203e-007,0.00788411 0.00650247,0.0142755 0.0145234,0.0142755z"/>
   </clipPath>
   <clipPath id="id1">
    <path d="M0.0658793 0.0394612c0.00409281,0 0.00740733,-0.003299 0.00740733,-0.00736328 3.10203e-007,-0.00406738 -0.00331483,-0.00736328 -0.00740764,-0.00736328 -2.51264e-005,0 -5.08732e-005,3.41223e-006 -7.59996e-005,3.41223e-006 -0.000660732,-0.0058712 -0.00566802,-0.0104371 -0.0117517,-0.0104371 -0.0048069,0 -0.00893818,0.00284828 -0.0107892,0.00693799 -6.01793e-005,-3.10203e-007 -0.000117567,-3.41223e-006 -0.000174644,-3.41223e-006 -0.00506406,0 -0.0091699,0.00408041 -0.0091699,0.00911282 0,0.00503273 0.00410553,0.00911313 0.0091699,0.00911313z"/>
   </clipPath>
   <clipPath id="id2">
    <path d="M0.0224934 0.0504126l-0.0110628 0c-0.000914167,0 -0.00165772,-0.000733319 -0.00165772,-0.00164159 6.20405e-007,-0.000904861 0.000743245,-0.00164159 0.00165772,-0.00164159l0.0110628 0c0.000914167,0 0.0016571,0.000736731 0.0016571,0.00164159 0,0.000907963 -0.000742935,0.00164159 -0.0016571,0.00164159zm0.0237789 0l-0.0165903 0c-0.000914167,0 -0.00165803,-0.000733319 -0.00165803,-0.00164159 3.10203e-007,-0.000904861 0.000743245,-0.00164159 0.00165772,-0.00164159l0.0165906 0c0.00091789,0 0.00166051,0.000736731 0.00166051,0.00164159 3.10203e-007,0.000907963 -0.000742935,0.00164159 -0.00166051,0.00164159zm-0.0127199 0.00875423l-0.0221218 0c-0.000914167,0 -0.00165772,-0.000733629 -0.00165772,-0.00164159 6.20405e-007,-0.000905171 0.000743245,-0.00164159 0.00165772,-0.00164159l0.0221218 -3.10203e-007c0.00091789,0 0.00166051,0.000736731 0.00166051,0.0016419 3.10203e-007,0.000907963 -0.000742935,0.00164159 -0.00166051,0.00164159zm0.0237823 0l-0.0165906 0c-0.000917269,0 -0.00166082,-0.000733629 -0.00166082,-0.00164159 0,-0.000905171 0.000743245,-0.00164159 0.00166082,-0.00164159l0.0165906 -3.10203e-007c0.000914477,0 0.00166051,0.000736731 0.00166051,0.0016419 0,0.000907963 -0.000746347,0.00164159 -0.00166051,0.00164159z"/>
   </clipPath>
 </defs>
 <g id="Layer_x0020_1">
  <metadata id="CorelCorpID_0Corel-Layer"/>
  <g style="clip-path:url(#id0)">
   <image transform="matrix(1 0 0 -1 -0.334864 -0.887311)" x="-0.465067" y="-1.17742" width="2.00264" height="1.03414" xlink:href="icon_fog_Images\icon_fog_ImgID1.png"/>
  </g>
  <g style="clip-path:url(#id1)">
   <image transform="matrix(1 0 0 -1 -0.334864 -0.887311)" x="-0.465067" y="-1.17742" width="2.00264" height="1.03414" xlink:href="icon_fog_Images\icon_fog_ImgID2.png"/>
  </g>
  <g style="clip-path:url(#id2)">
   <image transform="matrix(1 0 0 -1 -0.334864 -0.887311)" x="-0.465067" y="-1.17742" width="2.00264" height="1.03414" xlink:href="icon_fog_Images\icon_fog_ImgID3.png"/>
  </g>
 </g>
</svg>
