<?xml version="1.0" encoding="UTF-8"?>
<!DOCTYPE svg PUBLIC "-//W3C//DTD SVG 1.1//EN" "http://www.w3.org/Graphics/SVG/1.1/DTD/svg11.dtd">
<!-- Creator: CorelDRAW -->
<svg xmlns="http://www.w3.org/2000/svg" xml:space="preserve" width="0.942909in" height="0.937626in" style="shape-rendering:geometricPrecision; text-rendering:geometricPrecision; image-rendering:optimizeQuality; fill-rule:evenodd; clip-rule:evenodd"
viewBox="0 0 0.0363723 0.0361685"
 xmlns:xlink="http://www.w3.org/1999/xlink">
 <defs>
   <clipPath id="id0">
    <path d="M0.0153508 0.0219465c-0.000889036,0 -0.00198051,0.000631164 -0.00242518,0.0014022l-0.00283842 0.00492311c-0.000444214,0.000772402 -8.24644e-005,0.00134935 0.000805205,0.00128405l0.00231812 -0.000171155c0.000885999,-6.53033e-005 0.00126506,0.000522427 0.000840742,0.00130591l-0.00257903 0.00475363c-0.00042432,0.000781817 -0.000209882,0.000959199 0.000475651,0.000393339l0.0093241 -0.00768089c0.000687204,-0.000566013 0.000522275,-0.000991699 -0.000365395,-0.000946594l-0.00356252 0.000183305c-0.000887821,4.51049e-005 -0.00125185,-0.0005487 -0.000807331,-0.00131973l0.00156849 -0.00272041c0.000444822,-0.000771187 8.09457e-005,-0.00140357 -0.000808242,-0.00140357l-0.00194619 -3.18923e-006z"/>
   </clipPath>
   <clipPath id="id1">
    <path d="M0.0287695 0.0155015c-0.00435543,0 -0.00789851,-0.00354263 -0.00789851,-0.00789836 3.03736e-007,-0.00350102 0.00235198,-0.00662069 0.00571738,-0.00758764 0.000148071,-4.05488e-005 0.000301458,0 0.00040731,0.0001057 0.000106004,0.0001057 0.000146097,0.000261213 0.0001057,0.00040731 -0.000184672,0.000644984 -0.000279741,0.00130105 -0.000279741,0.00195242 4.55605e-007,0.00389861 0.00317116,0.00706992 0.00707129,0.00706992 0.000648781,0 0.00130591,-9.32471e-005 0.00195257,-0.000279741 0.000144579,-4.07007e-005 0.000300092,0 0.00040564,0.0001057 0.000106004,0.000107067 0.000146249,0.000262732 0.000105852,0.00040731 -0.000966641,0.00336677 -0.00408692,0.00571738 -0.00758749,0.00571738z"/>
   </clipPath>
   <clipPath id="id2">
    <path d="M0.0247872 0.0240776c0.00317283,0 0.00574502,-0.00252906 0.00574502,-0.00564904 1.51868e-007,-0.00311846 -0.0025728,-0.00564752 -0.00574548,-0.00564752 -2.00466e-005,0 -3.88783e-005,3.18923e-006 -5.90767e-005,3.18923e-006 -0.000509366,-0.00450517 -0.00439461,-0.00800725 -0.00911422,-0.00800725 -0.00372578,-1.51868e-007 -0.00693005,0.00218569 -0.00836627,0.00532252 -4.44974e-005,0 -9.02097e-005,-3.03736e-006 -0.000135315,-3.03736e-006 -0.00392822,-3.03736e-007 -0.00711184,0.00312924 -0.00711184,0.00699064 0,0.00385973 0.00318361,0.00699064 0.00711184,0.00699064z"/>
   </clipPath>
   <clipPath id="id3">
    <path d="M0.0322532 0.0240963c0.00200405,0 0.00362798,-0.00161345 0.00362798,-0.0036049 4.55605e-007,-0.0019913 -0.00162438,-0.0036049 -0.00362828,-0.0036049 -1.23013e-005,0 -2.32358e-005,1.67055e-006 -3.5689e-005,1.67055e-006 -0.000323175,-0.00287456 -0.0027763,-0.00510976 -0.00575474,-0.00510976 -0.00235153,0 -0.00437593,0.00139445 -0.00528213,0.00339668 -2.82475e-005,-3.03736e-007 -5.61912e-005,-1.67055e-006 -8.56537e-005,-1.67055e-006 -0.0024794,-1.51868e-007 -0.00448938,0.00199767 -0.00448938,0.00446143 4.55605e-007,0.00246376 0.00200998,0.00446158 0.00448938,0.00446158z"/>
   </clipPath>
 </defs>
 <g id="Layer_x0020_1">
  <metadata id="CorelCorpID_0Corel-Layer"/>
  <g style="clip-path:url(#id0)">
   <image transform="matrix(1 0 0 -1 -0.163942 0.0712585)" x="-0.471455" y="-0.323606" width="0.980449" height="0.506291" xlink:href="icon_severe_thunderstorm_night_Images\icon_severe_thunderstorm_night_ImgID1.png"/>
  </g>
  <g style="clip-path:url(#id1)">
   <image transform="matrix(1 0 0 -1 -0.163942 0.0712585)" x="-0.471455" y="-0.323606" width="0.980449" height="0.506291" xlink:href="icon_severe_thunderstorm_night_Images\icon_severe_thunderstorm_night_ImgID2.png"/>
  </g>
  <g style="clip-path:url(#id2)">
   <image transform="matrix(1 0 0 -1 -0.163942 0.0712585)" x="-0.471455" y="-0.323606" width="0.980449" height="0.506291" xlink:href="icon_severe_thunderstorm_night_Images\icon_severe_thunderstorm_night_ImgID3.png"/>
  </g>
  <g style="clip-path:url(#id3)">
   <image transform="matrix(1 0 0 -1 -0.163942 0.0712585)" x="-0.471455" y="-0.323606" width="0.980449" height="0.506291" xlink:href="icon_severe_thunderstorm_night_Images\icon_severe_thunderstorm_night_ImgID4.png"/>
  </g>
 </g>
</svg>
