<?xml version="1.0" encoding="UTF-8"?>
<!DOCTYPE svg PUBLIC "-//W3C//DTD SVG 1.1//EN" "http://www.w3.org/Graphics/SVG/1.1/DTD/svg11.dtd">
<!-- Creator: CorelDRAW -->
<svg xmlns="http://www.w3.org/2000/svg" xml:space="preserve" width="0.930177in" height="0.610791in" style="shape-rendering:geometricPrecision; text-rendering:geometricPrecision; image-rendering:optimizeQuality; fill-rule:evenodd; clip-rule:evenodd"
viewBox="0 0 0.0427287 0.0280574"
 xmlns:xlink="http://www.w3.org/1999/xlink">
 <defs>
   <clipPath id="id0">
    <path d="M0.0336229 0.0184605c-0.0051868,0 -0.00940604,-0.00422033 -0.00940604,-0.0094055 1.80851e-007,-0.00416897 0.00279903,-0.00788599 0.00680867,-0.00903548 0.000174159,-5.04573e-005 0.000357361,-1.98936e-006 0.000485041,0.000125872 0.000125872,0.00012551 0.000173978,0.000310882 0.000124064,0.000483052 -0.000219914,0.000767892 -0.000331499,0.00155134 -0.000331499,0.00232502 3.61701e-007,0.00464244 0.00377652,0.00842113 0.00841914,0.00842113 0.000774041,-3.61701e-007 0.00155495,-0.000113032 0.00232502,-0.000333308 0.000174159,-4.82871e-005 0.000357361,0 0.000485041,0.000125872 0.000126234,0.00012551 0.000174159,0.000311063 0.000124244,0.000483233 -0.00114967,0.00400946 -0.00486506,0.00681047 -0.00903367,0.00681011z"/>
   </clipPath>
   <clipPath id="id1">
    <path d="M0.0397743 0.00466215c-0.000181574,0.000664264 -0.000477807,0.000664626 -0.000657392,0 -0.000181393,-0.000664626 -0.000871881,-0.00135493 -0.00153633,-0.00153651 -0.000664445,-0.000179585 -0.000664626,-0.000475637 0,-0.00065703 0.000664445,-0.000179766 0.00135493,-0.000871881 0.00153633,-0.0015347 0.000179766,-0.000664807 0.000475818,-0.000664626 0.000657211,0 0.000179585,0.000662818 0.000871881,0.00135511 0.00153651,0.0015347 0.000662818,0.000181393 0.000662637,0.000477627 0,0.00065703 -0.000664264,0.000181393 -0.00135692,0.000871881 -0.00153633,0.00153651z"/>
   </clipPath>
   <clipPath id="id2">
    <path d="M0.00439666 0.00635202c-0.000138893,0.000505297 -0.000364957,0.000505658 -0.000501861,1.80851e-007 -0.000138712,-0.000507105 -0.000666435,-0.00103465 -0.00117173,-0.00117173 -0.000507286,-0.000138893 -0.000507286,-0.000364595 0,-0.00050168 0.000505478,-0.000139074 0.00103284,-0.000666435 0.00117173,-0.00117173 0.000136904,-0.000507648 0.000362786,-0.000507286 0.000501499,0 0.000137085,0.000505116 0.000664626,0.00103302 0.00117191,0.00117173 0.000505478,0.000136904 0.000505478,0.000362786 0,0.00050168 -0.000507286,0.000137085 -0.00103483,0.000664626 -0.00117155,0.00117155z"/>
   </clipPath>
   <clipPath id="id3">
    <path d="M0.0295168 0.0280349c0.00378014,0 0.00684194,-0.00301171 0.00684194,-0.0067271 1.80851e-007,-0.00371359 -0.00306198,-0.00672529 -0.00684194,-0.00672529 -2.22446e-005,0 -4.62978e-005,3.79786e-006 -7.03509e-005,3.79786e-006 -0.000607116,-0.00536493 -0.00523328,-0.00953535 -0.0108516,-0.00953535 -0.00443717,-1.80851e-007 -0.00825439,0.0026028 -0.00996487,0.00633827 -5.35318e-005,0 -0.000107425,-3.61701e-006 -0.000161138,-3.61701e-006 -0.00467589,-3.61701e-007 -0.00846887,0.00372643 -0.00846887,0.00832474 1.80851e-007,0.00459632 0.0037928,0.00832474 0.00846887,0.00832474z"/>
   </clipPath>
   <clipPath id="id4">
    <path d="M0.0384098 0.0280572c0.00238434,0 0.00431889,-0.00192136 0.00431889,-0.00429285 1.80851e-007,-0.00237131 -0.00193474,-0.00429285 -0.00431889,-0.00429285 -1.46489e-005,0 -2.94787e-005,1.98936e-006 -4.44893e-005,1.98936e-006 -0.000385031,-0.00342314 -0.00330432,-0.0060849 -0.00685098,-0.0060849 -0.00280264,0 -0.00521121,0.00166057 -0.00629035,0.00404491 -3.5085e-005,-3.61701e-007 -6.85424e-005,-1.98936e-006 -0.000103627,-1.98936e-006 -0.00295257,-1.80851e-007 -0.00534631,0.00237891 -0.00534631,0.00531285 1.80851e-007,0.00293394 0.00239356,0.00531303 0.00534631,0.00531303z"/>
   </clipPath>
 </defs>
 <g id="Layer_x0020_1">
  <metadata id="CorelCorpID_0Corel-Layer"/>
  <g style="clip-path:url(#id0)">
   <image transform="matrix(1 0 0 -1 -0.195228 0.0835821)" x="-0.465089" y="-0.386" width="1.16756" height="0.602911" xlink:href="icon_partly_cloudy_night_Images\icon_partly_cloudy_night_ImgID1.png"/>
  </g>
  <g style="clip-path:url(#id1)">
   <image transform="matrix(1 0 0 -1 -0.195228 0.0835821)" x="-0.465089" y="-0.386" width="1.16756" height="0.602911" xlink:href="icon_partly_cloudy_night_Images\icon_partly_cloudy_night_ImgID2.png"/>
  </g>
  <g style="clip-path:url(#id2)">
   <image transform="matrix(1 0 0 -1 -0.195228 0.0835821)" x="-0.465089" y="-0.386" width="1.16756" height="0.602911" xlink:href="icon_partly_cloudy_night_Images\icon_partly_cloudy_night_ImgID3.png"/>
  </g>
  <g style="clip-path:url(#id3)">
   <image transform="matrix(1 0 0 -1 -0.195228 0.0835821)" x="-0.465089" y="-0.386" width="1.16756" height="0.602911" xlink:href="icon_partly_cloudy_night_Images\icon_partly_cloudy_night_ImgID4.png"/>
  </g>
  <g style="clip-path:url(#id4)">
   <image transform="matrix(1 0 0 -1 -0.195228 0.0835821)" x="-0.465089" y="-0.386" width="1.16756" height="0.602911" xlink:href="icon_partly_cloudy_night_Images\icon_partly_cloudy_night_ImgID5.png"/>
  </g>
 </g>
</svg>
