<?xml version="1.0" encoding="UTF-8"?>
<!DOCTYPE svg PUBLIC "-//W3C//DTD SVG 1.1//EN" "http://www.w3.org/Graphics/SVG/1.1/DTD/svg11.dtd">
<!-- Creator: CorelDRAW -->
<svg xmlns="http://www.w3.org/2000/svg" xml:space="preserve" width="0.930138in" height="0.611776in" style="shape-rendering:geometricPrecision; text-rendering:geometricPrecision; image-rendering:optimizeQuality; fill-rule:evenodd; clip-rule:evenodd"
viewBox="0 0 0.25529 0.167911"
 xmlns:xlink="http://www.w3.org/1999/xlink">
 <defs>
   <clipPath id="id0">
    <path d="M0.195475 0.129687c-0.0107625,0 -0.0194784,-0.00869427 -0.0194784,-0.0194341 1.08057e-006,-0.00259985 0.00053056,-0.00508841 0.00145985,-0.00735544l-0.111522 0c-0.00334112,0 -0.00605119,-0.00269927 -0.00605119,-0.00603931 1.08057e-006,-0.00332924 0.00270899,-0.00602742 0.00605011,-0.00602742l0.129056 0c7.78011e-005,0 0.000154522,2.16114e-005 0.000243128,2.16114e-005 7.78011e-005,0 0.000154522,-2.16114e-005 0.000242048,-2.16114e-005 0.0107625,0 0.0194784,0.00869319 0.0194784,0.0194222 1.08057e-006,0.0107387 -0.00871588,0.0194341 -0.0194773,0.0194341zm0.0403269 -0.0333486c-0.0107614,0 -0.0194773,-0.00869319 -0.0194773,-0.0194222 0,-0.00261174 0.00053056,-0.00509921 0.00146958,-0.00736625l-0.204287 0c-0.00334112,0 -0.00605119,-0.00269927 -0.00605119,-0.00603931 0,-0.00333032 0.00270899,-0.0060285 0.00605011,-0.0060285l0.221809 0c8.96874e-005,0 0.000166408,2.2692e-005 0.000243128,2.2692e-005 8.96874e-005,0 0.000166408,-2.2692e-005 0.000244209,-2.2692e-005 0.0107614,0 0.0194881,0.00869427 0.0194881,0.0194341 1.08057e-006,0.0107279 -0.00872669,0.0194222 -0.0194881,0.0194222zm-0.0403269 -0.0574831c-8.86068e-005,0 -0.000166408,-2.05308e-005 -0.000243128,-2.05308e-005 -8.86068e-005,9.72513e-006 -0.000166408,2.16114e-005 -0.000244209,2.16114e-005l-0.0887267 -1.08057e-006c-0.00334112,0 -0.00605119,-0.0026971 -0.00605119,-0.00602634 0,-0.00333032 0.00271007,-0.0060285 0.00605011,-0.0060285l0.0711977 -1.08057e-006c-0.000929291,-0.00227784 -0.00146093,-0.00475451 -0.00146093,-0.00736517 1.08057e-006,-0.0107301 0.00871588,-0.0194341 0.0194773,-0.0194341 0.0107625,0 0.0194784,0.00870508 0.0194784,0.0194341 1.08057e-006,0.0107279 -0.00871588,0.0194222 -0.0194773,0.0194211z"/>
   </clipPath>
   <clipPath id="id1">
    <path d="M0.00762234 0.141222c-0.00421422,0 -0.00762234,-0.00340596 -0.00762234,-0.00762018 1.08057e-006,-0.00421422 0.00340704,-0.00762126 0.00762126,-0.00762126 0.00421422,0 0.00762126,0.00340704 0.00762126,0.00762126 0,0.00421314 -0.00340704,0.00762018 -0.00762018,0.00762018zm0.038115 0c-0.0042045,0 -0.00762126,-0.00340596 -0.00762126,-0.00762018 0,-0.00421422 0.00341676,-0.00762126 0.00762018,-0.00762126 0.00421422,0 0.00763207,0.00340704 0.00763207,0.00762126 0,0.00421314 -0.00341784,0.00762018 -0.00763099,0.00762018zm0.0381258 0c-0.00421422,0 -0.00762126,-0.00340596 -0.00762126,-0.00762018 1.08057e-006,-0.00421422 0.00340596,-0.00762126 0.00762018,-0.00762126 0.00421422,0 0.00762018,0.00340704 0.00762018,0.00762126 0,0.00421314 -0.00340596,0.00762018 -0.0076191,0.00762018zm0.0381139 0c-0.00420234,0 -0.00762018,-0.00340596 -0.00762018,-0.00762018 0,-0.00421422 0.00341676,-0.00762126 0.00762018,-0.00762126 0.00421531,0 0.00763207,0.00340704 0.00763207,0.00762126 0,0.00421314 -0.00341784,0.00762018 -0.00763207,0.00762018zm-0.0952977 0.026689c-0.00420342,0 -0.00762126,-0.00341676 -0.00762126,-0.00762018 0,-0.00421422 0.00341784,-0.00763207 0.00762018,-0.00763207 0.00421531,0 0.00763207,0.00341784 0.00763207,0.00763207 0,0.00420234 -0.00341784,0.00762018 -0.00763099,0.00762018zm0.0381258 0c-0.00421422,0 -0.00763207,-0.00341676 -0.00763207,-0.00762018 0,-0.00421422 0.00341676,-0.00763207 0.00763099,-0.00763207 0.00420342,0 0.00762126,0.00341784 0.00762126,0.00763207 1.08057e-006,0.00420234 -0.00341784,0.00762018 -0.00762018,0.00762018zm0.038115 0c-0.00421422,0 -0.00762126,-0.00341676 -0.00762126,-0.00762018 1.08057e-006,-0.00421422 0.00340704,-0.00763207 0.00762126,-0.00763207 0.00421314,0 0.00762018,0.00341784 0.00762018,0.00763207 1.08057e-006,0.00420234 -0.00340704,0.00762018 -0.00762018,0.00762018zm-0.0762407 -0.0533672c-0.00420342,0 -0.00762126,-0.00341784 -0.00762126,-0.00762018 0,-0.00421531 0.00341784,-0.00763207 0.00762018,-0.00763207 0.00421531,-1.08057e-006 0.00763207,0.00341784 0.00763207,0.00763207l-0.00763099 0.00762018zm0 0l0.00763099 -0.00762126c0,0.00420342 -0.00341784,0.00762126 -0.00763099,0.00762126z"/>
   </clipPath>
 </defs>
 <g id="Layer_x0020_1">
  <metadata id="CorelCorpID_0Corel-Layer"/>
  <g style="clip-path:url(#id0)">
   <image transform="matrix(1 0 0 -1 -1.16648 -0.796209)" x="-0.465069" y="-2.95413" width="6.97607" height="3.60235" xlink:href="icon_breezy_snow_Images\icon_breezy_snow_ImgID1.png"/>
  </g>
  <g style="clip-path:url(#id1)">
   <image transform="matrix(1 0 0 -1 -1.16648 -0.796209)" x="-0.465069" y="-2.95413" width="6.97607" height="3.60235" xlink:href="icon_breezy_snow_Images\icon_breezy_snow_ImgID2.png"/>
  </g>
 </g>
</svg>
