<?xml version="1.0" encoding="UTF-8"?>
<!DOCTYPE svg PUBLIC "-//W3C//DTD SVG 1.1//EN" "http://www.w3.org/Graphics/SVG/1.1/DTD/svg11.dtd">
<!-- Creator: CorelDRAW -->
<svg xmlns="http://www.w3.org/2000/svg" xml:space="preserve" width="0.930134in" height="1.02567in" style="shape-rendering:geometricPrecision; text-rendering:geometricPrecision; image-rendering:optimizeQuality; fill-rule:evenodd; clip-rule:evenodd"
viewBox="0 0 0.113678 0.125353"
 xmlns:xlink="http://www.w3.org/1999/xlink">
 <defs>
   <clipPath id="id0">
    <path d="M0.0894514 0.0491166c-0.0138004,0 -0.0250255,-0.0112295 -0.0250255,-0.0250298 4.81167e-007,-0.0110914 0.00745232,-0.0209765 0.018115,-0.0240348 0.000468176,-0.000133283 0.000955598,-5.29284e-006 0.00129049,0.0003296 0.000334892,0.000340185 0.000463364,0.000832419 0.000334892,0.00129049 -0.000585099,0.002044 -0.000886791,0.00412745 -0.000886791,0.00618589 9.62335e-007,0.0123525 0.0100477,0.0224046 0.0224046,0.0224046 0.00205458,0 0.00413756,-0.000300248 0.00618637,-0.00088631 0.000458071,-0.00012799 0.000950305,-4.81167e-006 0.00128568,0.000334892 0.000335374,0.000334892 0.000462883,0.000827608 0.000334892,0.00128568 -0.00306359,0.010668 -0.0129487,0.0181198 -0.0240396,0.0181198z"/>
   </clipPath>
   <clipPath id="id1">
    <path d="M0.0785318 0.0762838c0.0100525,0 0.0182035,-0.00801336 0.0182035,-0.0178932 0,-0.0098851 -0.00815097,-0.0178985 -0.0182035,-0.0178985 -6.39952e-005,0 -0.000122698,1.01045e-005 -0.000187174,1.01045e-005 -0.00162009,-0.0142681 -0.0139283,-0.0253647 -0.0288763,-0.0253647 -0.0118054,0 -0.0219614,0.00692496 -0.026507,0.0168591 -0.000142907,-4.81167e-007 -0.000285813,-1.01045e-005 -0.000433532,-1.01045e-005 -0.0124411,0 -0.0225278,0.00991926 -0.0225278,0.0221486 0,0.0122342 0.0100867,0.0221486 0.0225278,0.0221486z"/>
   </clipPath>
   <clipPath id="id2">
    <path d="M0.102187 0.076343c0.00634852,0 0.0114903,-0.0051124 0.0114903,-0.0114215 9.62335e-007,-0.00630473 -0.00514175,-0.0114215 -0.0114903,-0.0114215 -3.89745e-005,-4.81167e-007 -7.84303e-005,9.62335e-006 -0.000118367,9.62335e-006 -0.00101863,-0.00910657 -0.00879093,-0.0161889 -0.0182281,-0.0161889 -0.00745088,0 -0.0138644,0.0044176 -0.0167355,0.0107613 -8.85348e-005,-4.81167e-006 -0.000182362,-9.62335e-006 -0.000270897,-9.62335e-006 -0.00785554,0 -0.0142238,0.00632879 -0.0142238,0.0141353 9.62335e-007,0.00780598 0.00636825,0.0141353 0.0142238,0.0141353z"/>
   </clipPath>
   <clipPath id="id3">
    <path d="M0.0259667 0.0937338l-0.0109105 0.0194247c-0.000620706,0.00110813 -0.00174856,0.00172883 -0.00291058,0.00172883 -0.000566334,0 -0.00114807,-0.000147718 -0.00167494,-0.000462883 -0.00160566,-0.000955598 -0.00215707,-0.00306359 -0.00122601,-0.00471351l0.010909 -0.0194252c0.000926247,-0.00165473 0.00297987,-0.00222107 0.00458552,-0.00126547 0.00160517,0.000955598 0.00215707,0.00306359 0.00122746,0.00471351zm0.0178681 0l-0.0167903 0.0298906c-0.000620706,0.00110813 -0.00174904,0.00172883 -0.00291154,0.00172883 -0.000570664,0 -0.0011471,-0.000147718 -0.00167398,-0.000462883 -0.00160566,-0.000955598 -0.00215755,-0.00306359 -0.00123131,-0.00471351l0.0167894 -0.0298911c0.000926247,-0.00165473 0.00298035,-0.00222107 0.00458601,-0.00126547 0.00160614,0.000955598 0.00215659,0.00306359 0.00123179,0.00471351zm0.0348841 0l-0.0100713 0.0179374c-0.000620706,0.00110284 -0.00175385,0.00172354 -0.00291154,0.00172354 -0.000570664,0 -0.0011471,-0.000147718 -0.00167446,-0.000462883 -0.00160517,-0.000950787 -0.00215707,-0.00306359 -0.00123131,-0.00471351l0.0100718 -0.0179326c0.000926247,-0.00165473 0.00297987,-0.00222107 0.00458552,-0.00126547 0.00160566,0.000955598 0.00215707,0.00306359 0.00123131,0.00471351zm-0.0166022 0l-0.0134313 0.0239164c-0.000620706,0.00110332 -0.00175337,0.00172402 -0.00291106,0.00172402 -0.000571146,-4.81167e-007 -0.00114758,-0.000147718 -0.00167446,-0.000463364 -0.00160566,-0.000955117 -0.00215707,-0.00306311 -0.00123131,-0.00471303l0.0134313 -0.0239121c0.000926247,-0.00165473 0.00297939,-0.00222107 0.00458504,-0.00126547 0.00160614,0.000955598 0.00215707,0.00306359 0.00123179,0.00471351z"/>
   </clipPath>
 </defs>
 <g id="Layer_x0020_1">
  <metadata id="CorelCorpID_0Corel-Layer"/>
  <g style="clip-path:url(#id0)">
   <image transform="matrix(1 0 0 -1 -0.51942 -1.34946)" x="-0.465067" y="-1.8129" width="3.10638" height="1.60409" xlink:href="icon_heavy_rainfall_nght_Images\icon_heavy_rainfall_nght_ImgID1.png"/>
  </g>
  <g style="clip-path:url(#id1)">
   <image transform="matrix(1 0 0 -1 -0.51942 -1.34946)" x="-0.465067" y="-1.8129" width="3.10638" height="1.60409" xlink:href="icon_heavy_rainfall_nght_Images\icon_heavy_rainfall_nght_ImgID2.png"/>
  </g>
  <g style="clip-path:url(#id2)">
   <image transform="matrix(1 0 0 -1 -0.51942 -1.34946)" x="-0.465067" y="-1.8129" width="3.10638" height="1.60409" xlink:href="icon_heavy_rainfall_nght_Images\icon_heavy_rainfall_nght_ImgID3.png"/>
  </g>
  <g style="clip-path:url(#id3)">
   <image transform="matrix(1 0 0 -1 -0.51942 -1.34946)" x="-0.465067" y="-1.8129" width="3.10638" height="1.60409" xlink:href="icon_heavy_rainfall_nght_Images\icon_heavy_rainfall_nght_ImgID4.png"/>
  </g>
 </g>
</svg>
