<?xml version="1.0" encoding="UTF-8"?>
<!DOCTYPE svg PUBLIC "-//W3C//DTD SVG 1.1//EN" "http://www.w3.org/Graphics/SVG/1.1/DTD/svg11.dtd">
<!-- Creator: CorelDRAW -->
<svg xmlns="http://www.w3.org/2000/svg" xml:space="preserve" width="0.597228in" height="0.584331in" style="shape-rendering:geometricPrecision; text-rendering:geometricPrecision; image-rendering:optimizeQuality; fill-rule:evenodd; clip-rule:evenodd"
viewBox="0 0 0.0450546 0.0440816"
 xmlns:xlink="http://www.w3.org/1999/xlink">
 <defs>
   <clipPath id="id0">
    <path d="M0.0429598 0.00414977l-0.040865 0c-0.00115535,0 -0.00209478,-0.000930222 -0.00209478,-0.0020734 0,-0.00114615 0.000939133,-0.00207637 0.00209449,-0.00207637l0.0408653 0c0.00115595,0 0.00209478,0.000930222 0.00209478,0.00207637 0,0.00114288 -0.00093943,0.0020734 -0.00209478,0.0020734zm-0.010479 0.00998385l-0.022001 0c-0.00115892,0 -0.00209835,-0.000930222 -0.00209835,-0.00207637 0,-0.00114347 0.00093943,-0.0020734 0.00209775,-0.0020734l0.0220016 -2.97006e-007c0.00115832,0 0.00209746,0.000930519 0.00209746,0.0020737 2.97006e-007,0.00114615 -0.00093943,0.00207637 -0.00209746,0.00207637zm0.00314321 0.00998029l-0.0188575 0c-0.00115803,0 -0.00209805,-0.000926955 -0.00209805,-0.0020731 2.97006e-007,-0.00114615 0.00093943,-0.0020734 0.00209775,-0.0020734l0.0188578 0c0.00115862,0 0.00209775,0.000927549 0.00209775,0.0020734 2.97006e-007,0.00114615 -0.00093943,0.0020734 -0.00209775,0.0020731zm-0.00628672 0.00998415l-0.0125708 0c-0.00115803,0 -0.00209805,-0.000927252 -0.00209805,-0.0020734 2.97006e-007,-0.00114615 0.00093943,-0.00207637 0.00209775,-0.00207637l0.0125711 0c0.00115803,0 0.00209746,0.000930222 0.00209746,0.00207637 5.94012e-007,0.00114585 -0.00093943,0.0020734 -0.00209746,0.0020734zm-0.00995356 0.00998356l-0.00104546 0c-0.00115862,0 -0.00209805,-0.000929925 -0.00209805,-0.0020731 5.94012e-007,-0.00114644 0.00093943,-0.00207637 0.00209775,-0.00207637l0.00104576 -2.97006e-007c0.00115832,0 0.00209449,0.000930519 0.00209449,0.00207667 2.97006e-007,0.00114288 -0.000936163,0.0020734 -0.00209449,0.0020731z"/>
   </clipPath>
 </defs>
 <g id="Layer_x0020_1">
  <metadata id="CorelCorpID_0Corel-Layer"/>
  <g style="clip-path:url(#id0)">
   <image transform="matrix(1 0 0 -1 -0.320618 -0.543525)" x="-0.298614" y="-0.974312" width="1.91745" height="0.990143" xlink:href="icon_tornado_Images\icon_tornado_ImgID1.png"/>
  </g>
 </g>
</svg>
