<?xml version="1.0" encoding="UTF-8"?>
<!DOCTYPE svg PUBLIC "-//W3C//DTD SVG 1.1//EN" "http://www.w3.org/Graphics/SVG/1.1/DTD/svg11.dtd">
<!-- Creator: CorelDRAW -->
<svg xmlns="http://www.w3.org/2000/svg" xml:space="preserve" width="0.930177in" height="0.84311in" style="shape-rendering:geometricPrecision; text-rendering:geometricPrecision; image-rendering:optimizeQuality; fill-rule:evenodd; clip-rule:evenodd"
viewBox="0 0 0.0263081 0.0238456"
 xmlns:xlink="http://www.w3.org/1999/xlink">
 <defs>
   <clipPath id="id0">
    <path d="M0.0203087 0.0113664c-0.00319385,0 -0.00579143,-0.00259869 -0.00579143,-0.00579232 0,-0.00256673 0.00172325,-0.00485431 0.00419211,-0.00556205 0.000107341,-3.0844e-005 0.000219916,-1.22485e-006 0.000298641,7.62748e-005 7.73883e-005,7.87245e-005 0.000107007,0.000192636 7.62748e-005,0.000298641 -0.000135402,0.000473015 -0.000203993,0.000955161 -0.000203993,0.00143152 1.1135e-007,0.00285858 0.0023251,0.00518479 0.00518368,0.00518479 0.000476467,0 0.000957388,-6.94825e-005 0.00143152,-0.000205107 0.000106005,-2.96191e-005 0.000219916,-1.1135e-006 0.000298641,7.74997e-005 7.78337e-005,7.74997e-005 0.000107119,0.000191522 7.63862e-005,0.000297527 -0.000707852,0.00246874 -0.00299532,0.00419322 -0.00556183,0.00419322z"/>
   </clipPath>
   <clipPath id="id1">
    <path d="M0.0181738 0.01726c0.00232621,0 0.00421248,-0.0018532 0.00421248,-0.00414078 3.3405e-007,-0.00228746 -0.00188638,-0.00414078 -0.0042126,-0.00414078 -1.44755e-005,0 -2.85056e-005,1.22485e-006 -4.33152e-005,2.33835e-006 -0.000374693,-0.00330309 -0.00322225,-0.00587093 -0.00668245,-0.00587093 -0.00273175,-1.1135e-007 -0.00508113,0.00160255 -0.00613428,0.00390249 -3.29596e-005,-1.1135e-006 -6.61419e-005,-2.227e-006 -9.92129e-005,-2.227e-006 -0.00287996,0 -0.00521441,0.00229437 -0.00521441,0.00512556 2.227e-007,0.00283007 0.00233423,0.00512433 0.00521441,0.00512433z"/>
   </clipPath>
   <clipPath id="id2">
    <path d="M0.0236482 0.0172749c0.00146904,0 0.00265993,-0.00118421 0.00265993,-0.00264312 0,-0.00146002 -0.001191,-0.00264312 -0.00266015,-0.00264312 -9.01936e-006,0 -1.82614e-005,1.22485e-006 -2.73921e-005,1.22485e-006 -0.000235728,-0.00210752 -0.00203459,-0.00374648 -0.00421828,-0.00374648 -0.00172437,0 -0.00320844,0.00102242 -0.00387298,0.00249046 -2.03771e-005,-1.1135e-007 -4.09768e-005,-1.22485e-006 -6.26901e-005,-1.22485e-006 -0.00181768,0 -0.00329162,0.0014647 -0.00329162,0.00327113 1.1135e-007,0.00180654 0.00147372,0.00327124 0.00329162,0.00327124z"/>
   </clipPath>
   <clipPath id="id3">
    <path d="M0.00625643 0.021549l-0.00114457 0.00191366c-0.000146648,0.000246195 -0.000412552,0.000382933 -0.000687253,0.000382933 -0.000133397,0 -0.000270135,-3.29596e-005 -0.000394291,-0.000102553 -0.00037937,-0.000210897 -0.000509538,-0.000679236 -0.000290624,-0.00104625l0.00114323 -0.00191377c0.000218803,-0.00036701 0.000701951,-0.000492279 0.00108266,-0.000280268 0.000379704,0.000210786 0.000508313,0.000679236 0.000290846,0.00104625zm0.00539235 0l-0.00114323 0.00191366c-0.000147205,0.000246195 -0.000414,0.000382933 -0.000687587,0.000382933 -0.0001344,0 -0.000270135,-3.29596e-005 -0.000395515,-0.000102553 -0.000379258,-0.000210897 -0.000508313,-0.000679236 -0.000290624,-0.00104625l0.00114479 -0.00191377c0.000218803,-0.00036701 0.000701617,-0.000492279 0.00108232,-0.000280268 0.000378702,0.000210786 0.000508313,0.000679236 0.000289844,0.00104625zm0.00578876 0l-0.00114412 0.00191366c-0.000147205,0.000246195 -0.000412997,0.000382933 -0.000686473,0.000382933 -0.000134177,0 -0.00027136,-3.29596e-005 -0.000395515,-0.000102553 -0.000379481,-0.000210897 -0.000509538,-0.000679236 -0.000290624,-0.00104625l0.00114323 -0.00191377c0.000220028,-0.00036701 0.000703176,-0.000492279 0.00108266,-0.000280268 0.000379592,0.000210786 0.000509427,0.000679236 0.000290846,0.00104625z"/>
   </clipPath>
 </defs>
 <g id="Layer_x0020_1">
  <metadata id="CorelCorpID_0Corel-Layer"/>
  <g style="clip-path:url(#id0)">
   <image transform="matrix(1 0 0 -1 -0.120202 -0.312289)" x="-0.465089" y="-0.419536" width="0.718867" height="0.371213" xlink:href="icon_scattered_showers_night_Images\icon_scattered_showers_night_ImgID1.png"/>
  </g>
  <g style="clip-path:url(#id1)">
   <image transform="matrix(1 0 0 -1 -0.120202 -0.312289)" x="-0.465089" y="-0.419536" width="0.718867" height="0.371213" xlink:href="icon_scattered_showers_night_Images\icon_scattered_showers_night_ImgID2.png"/>
  </g>
  <g style="clip-path:url(#id2)">
   <image transform="matrix(1 0 0 -1 -0.120202 -0.312289)" x="-0.465089" y="-0.419536" width="0.718867" height="0.371213" xlink:href="icon_scattered_showers_night_Images\icon_scattered_showers_night_ImgID3.png"/>
  </g>
  <g style="clip-path:url(#id3)">
   <image transform="matrix(1 0 0 -1 -0.120202 -0.312289)" x="-0.465089" y="-0.419536" width="0.718867" height="0.371213" xlink:href="icon_scattered_showers_night_Images\icon_scattered_showers_night_ImgID4.png"/>
  </g>
 </g>
</svg>
