<?xml version="1.0" encoding="UTF-8"?>
<!DOCTYPE svg PUBLIC "-//W3C//DTD SVG 1.1//EN" "http://www.w3.org/Graphics/SVG/1.1/DTD/svg11.dtd">
<!-- Creator: CorelDRAW -->
<svg xmlns="http://www.w3.org/2000/svg" xml:space="preserve" width="0.930134in" height="0.901807in" style="shape-rendering:geometricPrecision; text-rendering:geometricPrecision; image-rendering:optimizeQuality; fill-rule:evenodd; clip-rule:evenodd"
viewBox="0 0 0.0732866 0.0710547"
 xmlns:xlink="http://www.w3.org/1999/xlink">
 <defs>
   <clipPath id="id0">
    <path d="M0.0506257 0.0394199c0.00648354,0 0.0117384,-0.0051658 0.0117384,-0.0115352 3.10203e-007,-0.00637342 -0.00525483,-0.0115355 -0.0117387,-0.0115355 -3.78447e-005,-6.20405e-007 -7.94119e-005,3.10203e-006 -0.000117567,3.10203e-006 -0.00104445,-0.00919875 -0.00897944,-0.0163523 -0.0186162,-0.0163523 -0.00761051,-6.20405e-007 -0.0141583,0.00446413 -0.0170891,0.010872 -9.46118e-005,-3.72243e-006 -0.00018426,-6.51425e-006 -0.000279182,-6.51425e-006 -0.00802029,0 -0.0145234,0.00639172 -0.0145234,0.0142758 3.10203e-007,0.00788659 0.00650247,0.0142789 0.0145234,0.0142789z"/>
   </clipPath>
   <clipPath id="id1">
    <path d="M0.0658793 0.0394581c0.00409281,0 0.00740733,-0.00329559 0.00740733,-0.00735987 3.10203e-007,-0.004068 -0.00331483,-0.00736328 -0.00740764,-0.00736328 -2.51264e-005,-6.20405e-007 -5.08732e-005,3.10203e-006 -7.59996e-005,3.10203e-006 -0.000660732,-0.0058712 -0.00566802,-0.0104368 -0.0117517,-0.0104368 -0.0048069,-6.20405e-007 -0.00893818,0.00284797 -0.0107892,0.00693768 -6.01793e-005,-3.41223e-006 -0.000117567,-6.20405e-006 -0.000174644,-6.20405e-006 -0.00506406,-3.10203e-007 -0.0091699,0.0040801 -0.0091699,0.00911282 0,0.00503242 0.00410553,0.00911282 0.0091699,0.00911282z"/>
   </clipPath>
   <clipPath id="id2">
    <path d="M0.0159112 0.0506728l-0.00720135 0.0125229c-0.000410088,0.000714707 -0.00115613,0.00111487 -0.0019214,0.00111487 -0.000374725,0 -0.000755654,-9.83342e-005 -0.00110494,-0.000301517 -0.00106027,-0.000613271 -0.00142259,-0.00197506 -0.000812731,-0.00303874l0.00720197 -0.0125232c0.00061234,-0.00106368 0.00196141,-0.0014319 0.0030251,-0.000812731 0.00106089,0.00061265 0.00142259,0.00197506 0.000813351,0.00303843zm0.0117861 0l-0.0110783 0.0192701c-0.000409157,0.000711605 -0.00115613,0.00111177 -0.0019214,0.00111177 -0.000374104,0 -0.000755654,-9.52322e-005 -0.00110494,-0.000298415 -0.00106027,-0.000613271 -0.00142228,-0.00197506 -0.000812731,-0.00303874l0.0110786 -0.0192704c0.00061265,-0.00106368 0.00196513,-0.0014319 0.00302882,-0.000812731 0.00105748,0.00061265 0.00142228,0.00197506 0.000809939,0.00303843z"/>
   </clipPath>
   <clipPath id="id3">
    <path d="M0.0394168 0.051444c-0.00120948,0 -0.00218786,-0.000993269 -0.00218786,-0.00222539 3.10203e-007,-0.00122902 0.000978069,-0.0022257 0.00218786,-0.0022257 0.00120979,0 0.00218755,0.000996991 0.00218755,0.0022257 3.10203e-007,0.00123212 -0.000977759,0.00222601 -0.00218755,0.00222539zm0.0109455 0c-0.00121041,0 -0.00219158,-0.000993269 -0.00219158,-0.00222539 0,-0.00122902 0.000981171,-0.0022257 0.00219096,-0.0022257 0.001207,0 0.00218786,0.000996991 0.00218786,0.0022257 3.10203e-007,0.00123212 -0.000981171,0.00222601 -0.00218724,0.00222539zm-0.0207951 0.0184927c-0.00120638,0 -0.00218755,-0.000996681 -0.00218755,-0.00222881 0,-0.00122871 0.000980861,-0.0022257 0.00218755,-0.0022257 0.00121041,-3.10203e-007 0.00219096,0.000996991 0.00219096,0.0022257 0,0.0012315 -0.000981171,0.00222912 -0.00219096,0.00222881zm0.00547446 -0.00946552c-0.00120979,0 -0.00219127,-0.000996371 -0.00219127,-0.00222539 3.10203e-007,-0.00122902 0.000981171,-0.0022257 0.00219096,-0.0022257 0.00120669,-6.20405e-007 0.00218755,0.000996991 0.00218755,0.0022257 3.10203e-007,0.00122902 -0.000980861,0.00222601 -0.00218724,0.00222539zm0.0109415 0c-0.00120979,0 -0.00218755,-0.000996371 -0.00218755,-0.00222539 3.10203e-007,-0.00122902 0.000977759,-0.0022257 0.00218755,-0.0022257 0.0012101,-6.20405e-007 0.00218755,0.000996991 0.00218755,0.0022257 0,0.00122902 -0.000977759,0.00222601 -0.00218755,0.00222539z"/>
   </clipPath>
 </defs>
 <g id="Layer_x0020_1">
  <metadata id="CorelCorpID_0Corel-Layer"/>
  <g style="clip-path:url(#id0)">
   <image transform="matrix(1 0 0 -1 -0.334864 0.123846)" x="-0.465067" y="-0.671842" width="2.00264" height="1.03414" xlink:href="icon_sleet_Images\icon_sleet_ImgID1.png"/>
  </g>
  <g style="clip-path:url(#id1)">
   <image transform="matrix(1 0 0 -1 -0.334864 0.123846)" x="-0.465067" y="-0.671842" width="2.00264" height="1.03414" xlink:href="icon_sleet_Images\icon_sleet_ImgID2.png"/>
  </g>
  <g style="clip-path:url(#id2)">
   <image transform="matrix(1 0 0 -1 -0.334864 0.123846)" x="-0.465067" y="-0.671842" width="2.00264" height="1.03414" xlink:href="icon_sleet_Images\icon_sleet_ImgID3.png"/>
  </g>
  <g style="clip-path:url(#id3)">
   <image transform="matrix(1 0 0 -1 -0.334864 0.123846)" x="-0.465067" y="-0.671842" width="2.00264" height="1.03414" xlink:href="icon_sleet_Images\icon_sleet_ImgID4.png"/>
  </g>
 </g>
</svg>
