<?xml version="1.0" encoding="UTF-8"?>
<!DOCTYPE svg PUBLIC "-//W3C//DTD SVG 1.1//EN" "http://www.w3.org/Graphics/SVG/1.1/DTD/svg11.dtd">
<!-- Creator: CorelDRAW -->
<svg xmlns="http://www.w3.org/2000/svg" xml:space="preserve" width="0.942929in" height="1.02679in" style="shape-rendering:geometricPrecision; text-rendering:geometricPrecision; image-rendering:optimizeQuality; fill-rule:evenodd; clip-rule:evenodd"
viewBox="0 0 0.0270573 0.0294636"
 xmlns:xlink="http://www.w3.org/1999/xlink">
 <defs>
   <clipPath id="id0">
    <path d="M0.0204138 0.0229555c0,0.00109515 -0.000887396,0.00198221 -0.0019813,0.00198221 -0.00109357,0 -0.00198085,-0.000886944 -0.00198085,-0.00198198 0,-0.00109402 0.000886944,-0.00198085 0.00198085,-0.00198085 0.00109402,-2.25944e-007 0.00198085,0.000886944 0.0019813,0.00198063z"/>
   </clipPath>
   <clipPath id="id1">
    <path d="M0.0214011 0.0115317c-0.00323891,0 -0.00587568,-0.00263632 -0.00587568,-0.00587534 3.38916e-007,-0.00260423 0.0017496,-0.00492615 0.00425317,-0.0056442 0.000110148,-3.15192e-005 0.00022425,-1.24269e-006 0.000302878,7.86286e-005 7.98713e-005,7.84026e-005 0.000109922,0.000194199 7.86286e-005,0.000301748 -0.000137261,0.00047968 -0.000208095,0.000969075 -0.000208095,0.00145237 0,0.00289999 0.0023601,0.00526043 0.00526032,0.00526043 0.00048273,-2.25944e-007 0.000971447,-7.06076e-005 0.00145248,-0.000208208 0.000107662,-3.01636e-005 0.00022312,0 0.000301748,7.86286e-005 7.97583e-005,7.84026e-005 0.000109922,0.000194312 7.86286e-005,0.000301861 -0.000718842,0.00250459 -0.00304008,0.0042543 -0.00564409,0.00425408z"/>
   </clipPath>
   <clipPath id="id2">
    <path d="M0.0184383 0.0179104c0.00236157,0 0.00427396,-0.00188132 0.00427396,-0.00420098 2.25944e-007,-0.00232112 -0.00191262,-0.00420109 -0.00427396,-0.00420109 -1.38956e-005,-2.25944e-007 -2.89209e-005,1.12972e-006 -4.39461e-005,1.12972e-006 -0.000378795,-0.00335007 -0.00326907,-0.00595532 -0.00677855,-0.00595532 -0.00277188,-2.25944e-007 -0.00515639,0.00162578 -0.00622476,0.00395945 -3.35527e-005,-1.35567e-006 -6.71054e-005,-2.37241e-006 -0.000100658,-2.37241e-006 -0.00292078,0 -0.00529037,0.00232779 -0.00529037,0.00519909 1.12972e-007,0.0028722 0.00236936,0.00520022 0.00529037,0.00520022z"/>
   </clipPath>
   <clipPath id="id3">
    <path d="M0.0239939 0.0179243c0.00148897,0 0.00269743,-0.00120022 0.00269743,-0.00268038 3.38916e-007,-0.00148152 -0.00120846,-0.00268162 -0.00269777,-0.00268162 -9.03777e-006,-2.25944e-007 -1.85274e-005,1.12972e-006 -2.77911e-005,1.12972e-006 -0.000240405,-0.00213822 -0.00206423,-0.00380095 -0.00428096,-0.00380095 -0.00174915,-2.25944e-007 -0.00325394,0.0010372 -0.00392815,0.00252662 -2.19166e-005,-1.24269e-006 -4.27035e-005,-2.25944e-006 -6.4733e-005,-2.25944e-006 -0.00184438,-1.12972e-007 -0.00333957,0.00148592 -0.00333957,0.00331878 0,0.00183275 0.00149507,0.00331878 0.00333957,0.00331878z"/>
   </clipPath>
   <clipPath id="id4">
    <path d="M0.00558884 0.0230561c-0.000440252,0 -0.000797922,-0.000352473 -0.000797922,-0.000786173 3.38916e-007,-0.000434943 0.000357218,-0.000787529 0.000797809,-0.000787529 0.000439461,0 0.000796679,0.000352699 0.000796679,0.000787529 1.12972e-007,0.000433587 -0.000357331,0.000786286 -0.000796566,0.000786173zm0.00398498 0c-0.000439349,0 -0.000797018,-0.000352473 -0.000797018,-0.000786173 3.38916e-007,-0.000434943 0.000357331,-0.000787529 0.000796792,-0.000787529 0.000440591,0 0.000797922,0.000352699 0.000797922,0.000787529 0,0.000433587 -0.000357331,0.000786286 -0.000797696,0.000786173zm0.00398588 0c-0.000440704,0 -0.000798035,-0.000352473 -0.000798035,-0.000786173 0,-0.000434943 0.000357331,-0.000787529 0.000797922,-0.000787529 0.000439574,0 0.000796792,0.000352699 0.000796792,0.000787529 1.12972e-007,0.000433587 -0.000357331,0.000786286 -0.000796679,0.000786173zm-0.00797086 0.00640744c-0.000440252,0 -0.000797922,-0.000352473 -0.000797922,-0.000787303 3.38916e-007,-0.00043483 0.000357218,-0.000786286 0.000797809,-0.000786286 0.000439461,-1.12972e-007 0.000796679,0.000351456 0.000796679,0.000786286 1.12972e-007,0.000434717 -0.000357331,0.000787529 -0.000796566,0.000787303zm0.00398498 0c-0.000439349,0 -0.000797018,-0.000352473 -0.000797018,-0.000787303 3.38916e-007,-0.00043483 0.000357331,-0.000786286 0.000796792,-0.000786286 0.000440591,-1.12972e-007 0.000797922,0.000351456 0.000797922,0.000786286 0,0.000434717 -0.000357331,0.000787529 -0.000797696,0.000787303zm-0.00199249 -0.00314876c-0.000440704,0 -0.000796905,-0.000351343 -0.000796905,-0.000786173 2.25944e-007,-0.000434943 0.000356201,-0.000787529 0.000796679,-0.000787529 0.00044093,0 0.000796792,0.000352699 0.000796792,0.000787529 2.25944e-007,0.000434604 -0.000356201,0.000786286 -0.000796566,0.000786173zm0.00398498 0c-0.000439349,0 -0.000797131,-0.000351343 -0.000797131,-0.000786173 4.51888e-007,-0.000434943 0.000357331,-0.000787529 0.000796905,-0.000787529 0.000440591,0 0.000797809,0.000352699 0.000797809,0.000787529 1.12972e-007,0.000434604 -0.000357218,0.000786286 -0.000797583,0.000786173z"/>
   </clipPath>
 </defs>
 <g id="Layer_x0020_1">
  <metadata id="CorelCorpID_0Corel-Layer"/>
  <g style="clip-path:url(#id0)">
   <image transform="matrix(1 0 0 -1 -0.121953 0.0522113)" x="-0.471465" y="-0.241123" width="0.729339" height="0.376621" xlink:href="icon_blizzard_night_Images\icon_blizzard_night_ImgID1.png"/>
  </g>
  <g style="clip-path:url(#id1)">
   <image transform="matrix(1 0 0 -1 -0.121953 0.0522113)" x="-0.471465" y="-0.241123" width="0.729339" height="0.376621" xlink:href="icon_blizzard_night_Images\icon_blizzard_night_ImgID2.png"/>
  </g>
  <g style="clip-path:url(#id2)">
   <image transform="matrix(1 0 0 -1 -0.121953 0.0522113)" x="-0.471465" y="-0.241123" width="0.729339" height="0.376621" xlink:href="icon_blizzard_night_Images\icon_blizzard_night_ImgID3.png"/>
  </g>
  <g style="clip-path:url(#id3)">
   <image transform="matrix(1 0 0 -1 -0.121953 0.0522113)" x="-0.471465" y="-0.241123" width="0.729339" height="0.376621" xlink:href="icon_blizzard_night_Images\icon_blizzard_night_ImgID4.png"/>
  </g>
  <g style="clip-path:url(#id4)">
   <image transform="matrix(1 0 0 -1 -0.121953 0.0522113)" x="-0.471465" y="-0.241123" width="0.729339" height="0.376621" xlink:href="icon_blizzard_night_Images\icon_blizzard_night_ImgID5.png"/>
  </g>
 </g>
</svg>
