<?xml version="1.0" encoding="UTF-8"?>
<!DOCTYPE svg PUBLIC "-//W3C//DTD SVG 1.1//EN" "http://www.w3.org/Graphics/SVG/1.1/DTD/svg11.dtd">
<!-- Creator: CorelDRAW -->
<svg xmlns="http://www.w3.org/2000/svg" xml:space="preserve" width="0.637575in" height="0.739744in" style="shape-rendering:geometricPrecision; text-rendering:geometricPrecision; image-rendering:optimizeQuality; fill-rule:evenodd; clip-rule:evenodd"
viewBox="0 0 0.033569 0.0389484"
 xmlns:xlink="http://www.w3.org/1999/xlink">
 <defs>
   <clipPath id="id0">
    <path d="M0.0171037 0.0389484c-0.00943118,0 -0.0171037,-0.00767214 -0.0171037,-0.0171056 0,-0.00758114 0.00508995,-0.0143369 0.0123828,-0.0164311 0.000316321,-8.91338e-005 0.000649018,-2.07288e-006 0.000880352,0.00022926 0.000229468,0.000229053 0.000318394,0.000566518 0.00022698,0.000880352 -0.000400687,0.00139836 -0.000604659,0.00281994 -0.000604659,0.00422888 0,0.00844242 0.00687035,0.0153128 0.015313,0.0153128 0.00140707,0 0.00282824,-0.000203764 0.00422867,-0.000604659 0.000314041,-8.93411e-005 0.000649226,-2.07288e-006 0.000880559,0.00022698 0.000229468,0.000231126 0.000316114,0.000566518 0.00022698,0.000880559 -0.00209216,0.00729031 -0.00884995,0.0123828 -0.0164309,0.0123825z"/>
   </clipPath>
   <clipPath id="id1">
    <path d="M0.022215 0.00484515c-0.00020563,0.000761576 -0.000545374,0.000761783 -0.000753491,0 -0.000205422,-0.000761783 -0.000999335,-0.001553 -0.00175884,-0.00176112 -0.000761576,-0.000206044 -0.000761783,-0.000545167 0,-0.000753077 0.000759503,-0.000206044 0.00155321,-0.000999542 0.00175884,-0.00176133 0.000208324,-0.000759503 0.000547655,-0.000759503 0.000753284,0 0.000208324,0.000761783 0.000999542,0.00155528 0.00176112,0.00176133 0.000762198,0.000207702 0.000761783,0.00054724 0,0.000753077 -0.000761368,0.00020791 -0.001553,0.000999335 -0.00176091,0.00176112z"/>
   </clipPath>
   <clipPath id="id2">
    <path d="M0.0283748 0.0166104c-0.000314248,0.00115418 -0.000827908,0.00115439 -0.00114195,0 -0.000313834,-0.00115418 -0.00151486,-0.0023552 -0.00266904,-0.00266697 -0.00115231,-0.000314248 -0.00115231,-0.0008277 0,-0.00114153 0.00115459,-0.000314248 0.002355,-0.00151507 0.00266904,-0.00266925 0.000314248,-0.00115418 0.000827493,-0.00115418 0.00114153,0 0.000314248,0.00115418 0.00151486,0.0023552 0.00266717,0.00266925 0.00115459,0.000313834 0.00115418,0.000827493 0,0.00114153 -0.0011519,0.000311554 -0.00235313,0.00151279 -0.00266676,0.00266697z"/>
   </clipPath>
 </defs>
 <g id="Layer_x0020_1">
  <metadata id="CorelCorpID_0Corel-Layer"/>
  <g style="clip-path:url(#id0)">
   <image transform="matrix(1 0 0 -1 -0.223767 -0.146515)" x="-0.318787" y="-0.563584" width="1.33823" height="0.691046" xlink:href="icon_clear_night_Images\icon_clear_night_ImgID1.png"/>
  </g>
  <g style="clip-path:url(#id1)">
   <image transform="matrix(1 0 0 -1 -0.223767 -0.146515)" x="-0.318787" y="-0.563584" width="1.33823" height="0.691046" xlink:href="icon_clear_night_Images\icon_clear_night_ImgID2.png"/>
  </g>
  <g style="clip-path:url(#id2)">
   <image transform="matrix(1 0 0 -1 -0.223767 -0.146515)" x="-0.318787" y="-0.563584" width="1.33823" height="0.691046" xlink:href="icon_clear_night_Images\icon_clear_night_ImgID3.png"/>
  </g>
 </g>
</svg>
