<?xml version="1.0" encoding="UTF-8"?>
<!DOCTYPE svg PUBLIC "-//W3C//DTD SVG 1.1//EN" "http://www.w3.org/Graphics/SVG/1.1/DTD/svg11.dtd">
<!-- Creator: CorelDRAW -->
<svg xmlns="http://www.w3.org/2000/svg" xml:space="preserve" width="0.930142in" height="0.902894in" style="shape-rendering:geometricPrecision; text-rendering:geometricPrecision; image-rendering:optimizeQuality; fill-rule:evenodd; clip-rule:evenodd"
viewBox="0 0 0.0301807 0.0292966"
 xmlns:xlink="http://www.w3.org/1999/xlink">
 <defs>
   <clipPath id="id0">
    <path d="M0.0208488 0.0162338c0.00266976,0 0.00483365,-0.00212748 0.00483365,-0.00475048 5.10983e-007,-0.00262441 -0.00216401,-0.00475189 -0.00483416,-0.00475189 -1.52018e-005,0 -3.25752e-005,2.68266e-006 -4.82879e-005,2.68266e-006 -0.000429865,-0.00378805 -0.00369799,-0.00673412 -0.00766654,-0.00673412 -0.00313373,0 -0.00583045,0.00183852 -0.00703739,0.00447596 -3.8707e-005,-1.27746e-007 -7.57533e-005,-2.68266e-006 -0.000115099,-2.68266e-006 -0.00330274,0 -0.00598093,0.00263348 -0.00598093,0.00588027 2.55492e-007,0.00324806 0.00267806,0.00588027 0.00598093,0.00588027z"/>
   </clipPath>
   <clipPath id="id1">
    <path d="M0.0271304 0.0162495c0.00168522,0 0.00305031,-0.0013573 0.00305031,-0.0030323 2.55492e-007,-0.00167385 -0.00136522,-0.0030323 -0.0030507,-0.0030323 -1.03474e-005,-1.27746e-007 -2.09503e-005,2.55492e-006 -3.12977e-005,2.55492e-006 -0.000272099,-0.00241772 -0.00233417,-0.00429801 -0.00483952,-0.00429801 -0.00197929,0 -0.00368087,0.00117283 -0.00444313,0.00285703 -2.45272e-005,-1.27746e-006 -4.84157e-005,-2.55492e-006 -7.19209e-005,-2.55492e-006 -0.00208545,0 -0.00377642,0.00168024 -0.00377642,0.00375279 1.27746e-007,0.00207242 0.00169072,0.00375279 0.00377642,0.00375279z"/>
   </clipPath>
   <clipPath id="id2">
    <path d="M0.00586762 0.0220525c-0.000496803,0 -0.000901374,-0.000398695 -0.000901374,-0.000890388 5.10983e-007,-0.000491694 0.00040406,-0.000889239 0.000900991,-0.000889239 0.000498336,0 0.000902269,0.000397545 0.000902269,0.000889239 1.27746e-007,0.000491566 -0.000404188,0.000890388 -0.000901885,0.000890388zm0.00450713 0c-0.000498336,0 -0.000901247,-0.000398695 -0.000901247,-0.000890388 3.83237e-007,-0.000491694 0.000402783,-0.000889239 0.000900991,-0.000889239 0.000497187,0 0.000900863,0.000397545 0.000900863,0.000889239 3.83237e-007,0.000491566 -0.000403932,0.000890388 -0.000900608,0.000890388zm0.00450572 0c-0.000496931,0 -0.000900863,-0.000398695 -0.000900863,-0.000890388 3.83237e-007,-0.000491694 0.000403932,-0.000889239 0.000900863,-0.000889239 0.000498336,0 0.000902269,0.000397545 0.000902269,0.000889239 1.27746e-007,0.000491566 -0.00040406,0.000890388 -0.000902269,0.000890388zm0.00450764 0c-0.000498336,0 -0.000902652,-0.000398695 -0.000902652,-0.000890388 1.27746e-007,-0.000491694 0.00040406,-0.000889239 0.000902269,-0.000889239 0.000497187,0 0.000900863,0.000397545 0.000900863,0.000889239 3.83237e-007,0.000491566 -0.000403932,0.000890388 -0.00090048,0.000890388zm-0.0135205 0.00724408c-0.000496803,0 -0.000901374,-0.000397417 -0.000901374,-0.000889111 5.10983e-007,-0.000491566 0.00040406,-0.000890516 0.000900991,-0.000890516 0.000498336,0 0.000902269,0.00039895 0.000902269,0.000890516 1.27746e-007,0.000491566 -0.000404188,0.000889239 -0.000901885,0.000889111zm0.00450713 0c-0.000498336,0 -0.000901247,-0.000397417 -0.000901247,-0.000889111 3.83237e-007,-0.000491566 0.000402783,-0.000890516 0.000900991,-0.000890516 0.000497187,0 0.000900863,0.00039895 0.000900863,0.000890516 3.83237e-007,0.000491566 -0.000403932,0.000889239 -0.000900608,0.000889111zm0.00450572 0c-0.000496931,0 -0.000900863,-0.000397417 -0.000900863,-0.000889111 3.83237e-007,-0.000491566 0.000403932,-0.000890516 0.000900863,-0.000890516 0.000498336,0 0.000902269,0.00039895 0.000902269,0.000890516 1.27746e-007,0.000491566 -0.00040406,0.000889239 -0.000902269,0.000889111zm0.00450764 0c-0.000498336,0 -0.000902652,-0.000397417 -0.000902652,-0.000889111 1.27746e-007,-0.000491566 0.00040406,-0.000890516 0.000902269,-0.000890516 0.000497187,0 0.000900863,0.00039895 0.000900863,0.000890516 3.83237e-007,0.000491566 -0.000403932,0.000889239 -0.00090048,0.000889111zm-0.0157735 -0.00355925c-0.000498336,0 -0.000901247,-0.000397417 -0.000901247,-0.000889111 3.83237e-007,-0.000491694 0.000402655,-0.000890516 0.000900863,-0.000890516 0.000498209,0 0.000900991,0.000398822 0.000900991,0.000890516 3.83237e-007,0.000491566 -0.000402783,0.000889111 -0.000900608,0.000889111zm0.00450713 0c-0.000498336,0 -0.000902524,-0.000397417 -0.000902524,-0.000889111 1.27746e-007,-0.000491694 0.000404188,-0.000890516 0.000902269,-0.000890516 0.000497187,0 0.000900991,0.000398822 0.000900991,0.000890516 2.55492e-007,0.000491566 -0.00040406,0.000889111 -0.000900736,0.000889111zm0.00450623 0c-0.000498464,0 -0.000901374,-0.000397417 -0.000901374,-0.000889111 3.83237e-007,-0.000491694 0.000402783,-0.000890516 0.000900863,-0.000890516 0.000498336,0 0.000900991,0.000398822 0.000900991,0.000890516 3.83237e-007,0.000491566 -0.000402783,0.000889111 -0.00090048,0.000889111zm0.00450713 0c-0.000498464,0 -0.000902524,-0.000397417 -0.000902524,-0.000889111 0,-0.000491694 0.00040406,-0.000890516 0.000902269,-0.000890516 0.000497059,0 0.000900863,0.000398822 0.000900863,0.000890516 2.55492e-007,0.000491566 -0.000403932,0.000889111 -0.000900608,0.000889111z"/>
   </clipPath>
 </defs>
 <g id="Layer_x0020_1">
  <metadata id="CorelCorpID_0Corel-Layer"/>
  <g style="clip-path:url(#id0)">
   <image transform="matrix(1 0 0 -1 -0.137902 -0.366309)" x="-0.465071" y="-0.485329" width="0.824716" height="0.425873" xlink:href="icon_snow_Images\icon_snow_ImgID1.png"/>
  </g>
  <g style="clip-path:url(#id1)">
   <image transform="matrix(1 0 0 -1 -0.137902 -0.366309)" x="-0.465071" y="-0.485329" width="0.824716" height="0.425873" xlink:href="icon_snow_Images\icon_snow_ImgID2.png"/>
  </g>
  <g style="clip-path:url(#id2)">
   <image transform="matrix(1 0 0 -1 -0.137902 -0.366309)" x="-0.465071" y="-0.485329" width="0.824716" height="0.425873" xlink:href="icon_snow_Images\icon_snow_ImgID3.png"/>
  </g>
 </g>
</svg>
