<?xml version="1.0" encoding="UTF-8"?>
<!DOCTYPE svg PUBLIC "-//W3C//DTD SVG 1.1//EN" "http://www.w3.org/Graphics/SVG/1.1/DTD/svg11.dtd">
<!-- Creator: CorelDRAW -->
<svg xmlns="http://www.w3.org/2000/svg" xml:space="preserve" width="0.930138in" height="0.830559in" style="shape-rendering:geometricPrecision; text-rendering:geometricPrecision; image-rendering:optimizeQuality; fill-rule:evenodd; clip-rule:evenodd"
viewBox="0 0 1.07325 0.958348"
 xmlns:xlink="http://www.w3.org/1999/xlink">
 <defs>
   <clipPath id="id0">
    <path d="M0.741386 0.577329c0.0949481,0 0.171907,-0.0756505 0.171907,-0.168977 0,-0.0932809 -0.0769588,-0.168931 -0.171911,-0.168931 -0.000554216,0 -0.00116294,9.53978e-005 -0.00171716,9.53978e-005 -0.0152954,-0.134761 -0.131504,-0.239517 -0.272629,-0.239517 -0.111456,-4.54275e-006 -0.207336,0.0653793 -0.250256,0.15921 -0.00139463,0 -0.0026984,-9.08551e-005 -0.00409302,-9.08551e-005 -0.117453,-9.08551e-006 -0.212687,0.0936034 -0.212687,0.209107 0,0.115454 0.0952297,0.209107 0.212687,0.209107z"/>
   </clipPath>
   <clipPath id="id1">
    <path d="M0.964767 0.577888c0.0599371,0 0.108481,-0.0482622 0.108481,-0.107831 4.54275e-006,-0.0595646 -0.0485439,-0.107831 -0.108485,-0.107831 -0.000367963,0 -0.000740469,4.99703e-005 -0.00111297,4.99703e-005 -0.00966698,-0.0859852 -0.0830006,-0.152845 -0.172093,-0.152845 -0.070399,0 -0.130895,0.0417116 -0.158006,0.101603 -0.000881294,-9.08551e-006 -0.00171716,-4.99703e-005 -0.00255757,-4.99703e-005 -0.074165,-4.54275e-006 -0.134288,0.0597554 -0.134288,0.133452 0,0.0736971 0.0601233,0.133457 0.134288,0.133457z"/>
   </clipPath>
   <clipPath id="id2">
    <path d="M0.223335 0.752448l-0.0465905 0.0781081c-0.00599643,0.0100531 -0.0168354,0.0156362 -0.0279924,0.0156362 -0.00544222,-4.54275e-006 -0.0110207,-0.00135374 -0.0160904,-0.00418842 -0.0154363,-0.00860397 -0.0207377,-0.0277108 -0.0118112,-0.0426837l0.046545 -0.0780808c0.00892651,-0.0149729 0.0285966,-0.0201244 0.0440829,-0.0114341 0.0154862,0.00860397 0.0207377,0.0277153 0.0118566,0.0426428zm0.259932 0l-0.0465905 0.0781081c-0.00595101,0.0100531 -0.0168354,0.0156362 -0.027947,0.0156362 -0.00548765,-4.54275e-006 -0.0110207,-0.00135374 -0.0161359,-0.00418842 -0.0154408,-0.00860397 -0.0206922,-0.0277108 -0.0118112,-0.0426837l0.0465905 -0.0780808c0.00893105,-0.0149729 0.0285966,-0.0201244 0.0440829,-0.0114341 0.0154408,0.00860397 0.0206922,0.0277153 0.0118112,0.0426428zm0.259932 0l-0.046545 0.0781081c-0.00600098,0.0100531 -0.0168354,0.0156362 -0.027997,0.0156362 -0.0054831,-4.54275e-006 -0.0110207,-0.00135374 -0.0160859,-0.00418842 -0.0154363,-0.00860397 -0.0207377,-0.0277108 -0.0118566,-0.0426837l0.046595 -0.0780808c0.00892197,-0.0149729 0.0285921,-0.0201244 0.0440783,-0.0114341 0.0154408,0.00860397 0.0207377,0.0277153 0.0118112,0.0426428zm-0.439234 0.112147l-0.046545 0.0781217c-0.00599643,0.010044 -0.0168354,0.0156316 -0.0279924,0.0156316 -0.00544222,-9.08551e-006 -0.0110207,-0.0013492 -0.0160904,-0.00418842 -0.0154363,-0.0086494 -0.0207377,-0.0277108 -0.0118066,-0.0426837l0.046545 -0.0780763c0.00892651,-0.0149729 0.0286421,-0.0200835 0.0440783,-0.0114341 0.0154408,0.00859035 0.0207377,0.0277108 0.0118112,0.0426292zm0.268027 0l-0.0465496 0.0781217c-0.00599643,0.010044 -0.0168354,0.0156316 -0.0279924,0.0156316 -0.00548765,-9.08551e-006 -0.0110207,-0.0013492 -0.0160904,-0.00418842 -0.0154317,-0.0086494 -0.0207377,-0.0277108 -0.0118112,-0.0426837l0.0465496 -0.0780763c0.00892651,-0.0149729 0.0285966,-0.0200835 0.0440783,-0.0114341 0.0154408,0.00859035 0.0207377,0.0277108 0.0118157,0.0426292zm0.268018 0l-0.046545 0.0781217c-0.00600098,0.010044 -0.0168354,0.0156316 -0.0279924,0.0156316 -0.00548765,-9.08551e-006 -0.0110207,-0.0013492 -0.0161359,-0.00418842 -0.0154363,-0.0086494 -0.0206922,-0.0277108 -0.0118112,-0.0426837l0.046595 -0.0780763c0.00892651,-0.0149729 0.0285921,-0.0200835 0.0440738,-0.0114341 0.0154408,0.00859035 0.0207422,0.0277108 0.0118157,0.0426292z"/>
   </clipPath>
 </defs>
 <g id="Layer_x0020_1">
  <metadata id="CorelCorpID_0Corel-Layer"/>
  <g style="clip-path:url(#id0)">
   <image transform="matrix(1 0 0 -1 -4.9039 1.84573)" x="0.465069" y="-9.82274" width="29.3276" height="15.1444" xlink:href="icon_drizzle_Images\icon_drizzle_ImgID1.png"/>
  </g>
  <g style="clip-path:url(#id1)">
   <image transform="matrix(1 0 0 -1 -4.9039 1.84573)" x="0.465069" y="-9.82274" width="29.3276" height="15.1444" xlink:href="icon_drizzle_Images\icon_drizzle_ImgID2.png"/>
  </g>
  <g style="clip-path:url(#id2)">
   <image transform="matrix(1 0 0 -1 -4.9039 1.84573)" x="0.465069" y="-9.82274" width="29.3276" height="15.1444" xlink:href="icon_drizzle_Images\icon_drizzle_ImgID3.png"/>
  </g>
 </g>
</svg>
