<?xml version="1.0" encoding="UTF-8"?>
<!DOCTYPE svg PUBLIC "-//W3C//DTD SVG 1.1//EN" "http://www.w3.org/Graphics/SVG/1.1/DTD/svg11.dtd">
<!-- Creator: CorelDRAW -->
<svg xmlns="http://www.w3.org/2000/svg" xml:space="preserve" width="0.930177in" height="1.01178in" style="shape-rendering:geometricPrecision; text-rendering:geometricPrecision; image-rendering:optimizeQuality; fill-rule:evenodd; clip-rule:evenodd"
viewBox="0 0 0.0263081 0.028616"
 xmlns:xlink="http://www.w3.org/1999/xlink">
 <defs>
   <clipPath id="id0">
    <path d="M0.0207006 0.0113656c-0.00319241,0 -0.00579132,-0.00259757 -0.00579132,-0.00579121 3.3405e-007,-0.00256673 0.00172448,-0.00485431 0.00419211,-0.00556316 0.000108566,-2.96191e-005 0.00022103,0 0.00029853,7.74997e-005 7.87245e-005,7.85018e-005 0.000108344,0.000192636 7.74997e-005,0.00029853 -0.00013529,0.000472904 -0.000205107,0.000955161 -0.000205107,0.00143163 0,0.00285836 0.00232621,0.00518357 0.00518479,0.00518357 0.000475799,0 0.000957499,-6.82576e-005 0.00143163,-0.000203993 0.000106117,-2.96191e-005 0.000219916,-1.1135e-006 0.000297416,7.63862e-005 7.86132e-005,7.87245e-005 0.000108344,0.000192636 7.74997e-005,0.000298641 -0.000708521,0.00246863 -0.00299643,0.00419211 -0.00556305,0.00419211z"/>
   </clipPath>
   <clipPath id="id1">
    <path d="M0.0181738 0.0172605c0.00232621,0 0.00421248,-0.00185442 0.00421248,-0.00414078 3.3405e-007,-0.00228769 -0.00188638,-0.00414189 -0.0042126,-0.00414189 -1.44755e-005,-1.1135e-007 -2.85056e-005,2.227e-006 -4.33152e-005,2.227e-006 -0.000374693,-0.00330198 -0.00322225,-0.00586982 -0.00668245,-0.00586982 -0.00273175,-1.1135e-007 -0.00508113,0.00160255 -0.00613428,0.0039026 -3.29596e-005,-1.22485e-006 -6.61419e-005,-3.45185e-006 -9.92129e-005,-3.45185e-006 -0.00287996,0 -0.00521441,0.00229548 -0.00521441,0.00512556 2.227e-007,0.00283119 0.00233423,0.00512556 0.00521441,0.00512556z"/>
   </clipPath>
   <clipPath id="id2">
    <path d="M0.0236482 0.0172742c0.00146904,0 0.00265993,-0.00118309 0.00265993,-0.00264312 0,-0.00145902 -0.001191,-0.002642 -0.00266015,-0.002642 -9.01936e-006,-1.1135e-007 -1.82614e-005,1.1135e-006 -2.73921e-005,1.1135e-006 -0.000235728,-0.00210752 -0.00203459,-0.00374637 -0.00421828,-0.00374637 -0.00172437,-1.1135e-007 -0.00320844,0.00102231 -0.00387298,0.00249034 -2.03771e-005,-1.22485e-006 -4.09768e-005,-2.33835e-006 -6.26901e-005,-2.33835e-006 -0.00181768,0 -0.00329162,0.0014647 -0.00329162,0.00327113 1.1135e-007,0.00180654 0.00147372,0.00327124 0.00329162,0.00327124z"/>
   </clipPath>
   <clipPath id="id3">
    <path d="M0.0053183 0.0212997l-0.00258399 0.00449531c-0.000146648,0.000256439 -0.000414779,0.000398967 -0.00068948,0.000398967 -0.000134177,-1.1135e-007 -0.00027136,-3.41845e-005 -0.00039674,-0.000107119 -0.000380483,-0.000220028 -0.000510651,-0.000708966 -0.000291737,-0.00109079l0.00258533 -0.00449531c0.000218803,-0.000381819 0.000704067,-0.000513992 0.00108589,-0.000291737 0.000380817,0.000220028 0.000510651,0.000708966 0.000290735,0.00109067zm0.00423219 0l-0.00397676 0.00691729c-0.000147205,0.000255326 -0.000415224,0.000398967 -0.000689814,0.000398967 -0.0001344,0 -0.000271137,-3.41845e-005 -0.000396629,-0.000107119 -0.000380372,-0.000220028 -0.000510651,-0.000708966 -0.000291737,-0.00109079l0.00397665 -0.00691729c0.000220028,-0.000381819 0.000704401,-0.000513992 0.00108622,-0.000291737 0.000380929,0.000220028 0.00051054,0.000708966 0.000292071,0.00109067z"/>
   </clipPath>
   <clipPath id="id4">
    <path d="M0.0137572 0.0215766c-0.000434377,0 -0.000785463,-0.000357768 -0.000785463,-0.000798825 1.1135e-007,-0.000441169 0.000351087,-0.000799048 0.000785352,-0.000799048 0.000434488,-1.1135e-007 0.000785241,0.000357879 0.000785241,0.000799048 1.1135e-007,0.000441058 -0.000351087,0.000798937 -0.000785129,0.000798825zm0.00392776 0c-0.00043304,0 -0.000785575,-0.000357768 -0.000785575,-0.000798825 3.3405e-007,-0.000441169 0.0003522,-0.000799048 0.000785352,-0.000799048 0.000434154,-1.1135e-007 0.000786354,0.000357879 0.000786354,0.000799048 1.1135e-007,0.000441058 -0.0003522,0.000798937 -0.000786132,0.000798825zm-0.00746313 0.00663691c-0.000434377,0 -0.000785686,-0.000356654 -0.000785686,-0.000798937 3.3405e-007,-0.000441058 0.000351087,-0.000798937 0.000785241,-0.000798937 0.000434377,-1.1135e-007 0.000785463,0.000357879 0.000785463,0.000798937 2.227e-007,0.000442171 -0.000351087,0.000799048 -0.000785018,0.000798937zm0.00196344 -0.00339651c-0.00043304,0 -0.000785241,-0.000357768 -0.000785241,-0.000798937 4.454e-007,-0.000441058 0.0003522,-0.000798937 0.000785241,-0.000798937 0.000434377,-1.1135e-007 0.000786466,0.000357879 0.000786466,0.000798937 1.1135e-007,0.000441169 -0.0003522,0.000799048 -0.000786466,0.000798937zm0.0039291 0c-0.000434377,0 -0.000785575,-0.000357768 -0.000785575,-0.000798937 3.3405e-007,-0.000441058 0.000350975,-0.000798937 0.000785241,-0.000798937 0.000434377,-1.1135e-007 0.000785352,0.000357879 0.000785352,0.000798937 3.3405e-007,0.000441169 -0.000350975,0.000799048 -0.000785018,0.000798937z"/>
   </clipPath>
 </defs>
 <g id="Layer_x0020_1">
  <metadata id="CorelCorpID_0Corel-Layer"/>
  <g style="clip-path:url(#id0)">
   <image transform="matrix(1 0 0 -1 -0.120202 -0.0765974)" x="-0.465089" y="-0.30169" width="0.718867" height="0.371213" xlink:href="icon_sleet_night_Images\icon_sleet_night_ImgID1.png"/>
  </g>
  <g style="clip-path:url(#id1)">
   <image transform="matrix(1 0 0 -1 -0.120202 -0.0765974)" x="-0.465089" y="-0.30169" width="0.718867" height="0.371213" xlink:href="icon_sleet_night_Images\icon_sleet_night_ImgID2.png"/>
  </g>
  <g style="clip-path:url(#id2)">
   <image transform="matrix(1 0 0 -1 -0.120202 -0.0765974)" x="-0.465089" y="-0.30169" width="0.718867" height="0.371213" xlink:href="icon_sleet_night_Images\icon_sleet_night_ImgID3.png"/>
  </g>
  <g style="clip-path:url(#id3)">
   <image transform="matrix(1 0 0 -1 -0.120202 -0.0765974)" x="-0.465089" y="-0.30169" width="0.718867" height="0.371213" xlink:href="icon_sleet_night_Images\icon_sleet_night_ImgID4.png"/>
  </g>
  <g style="clip-path:url(#id4)">
   <image transform="matrix(1 0 0 -1 -0.120202 -0.0765974)" x="-0.465089" y="-0.30169" width="0.718867" height="0.371213" xlink:href="icon_sleet_night_Images\icon_sleet_night_ImgID5.png"/>
  </g>
 </g>
</svg>
