<?xml version="1.0" encoding="UTF-8"?>
<!DOCTYPE svg PUBLIC "-//W3C//DTD SVG 1.1//EN" "http://www.w3.org/Graphics/SVG/1.1/DTD/svg11.dtd">
<!-- Creator: CorelDRAW -->
<svg xmlns="http://www.w3.org/2000/svg" xml:space="preserve" width="0.930134in" height="0.801866in" style="shape-rendering:geometricPrecision; text-rendering:geometricPrecision; image-rendering:optimizeQuality; fill-rule:evenodd; clip-rule:evenodd"
viewBox="0 0 0.113678 0.0980013"
 xmlns:xlink="http://www.w3.org/1999/xlink">
 <defs>
   <clipPath id="id0">
    <path d="M0.0690018 0.0526994c-0.00281675,0 -0.0062749,0.00199973 -0.00768328,0.00444262l-0.00898869 0.015598c-0.00140838,0.00244722 -0.000265604,0.00427517 0.00254634,0.00406827l0.00734357 -0.000542276c0.0028129,-0.000206902 0.00400909,0.00165522 0.00266422,0.00413756l-0.0081707 0.015061c-0.00134438,0.00247705 -0.000664492,0.00303905 0.00151231,0.00124622l0.0295413 -0.0243355c0.00217728,-0.00179331 0.00165473,-0.00314202 -0.0011625,-0.00299912l-0.0112882 0.000580769c-0.00281194,0.000142907 -0.00396001,-0.00173846 -0.00255163,-0.00418134l0.00496517 -0.00861915c0.00140838,-0.00244337 0.0002555,-0.00444695 -0.00256173,-0.00444695l-0.00616616 -1.01045e-005z"/>
   </clipPath>
   <clipPath id="id1">
    <path d="M0.0785318 0.0611458c0.0100525,0 0.0182035,-0.00801288 0.0182035,-0.0178927 0,-0.00988606 -0.00815097,-0.0178932 -0.0182035,-0.0178932 -6.39952e-005,-9.62335e-007 -0.000122698,4.81167e-006 -0.000187174,4.81167e-006 -0.00162009,-0.0142685 -0.0139283,-0.0253647 -0.0288763,-0.0253647 -0.0118054,-9.62335e-007 -0.0219614,0.00692448 -0.026507,0.016864 -0.000142907,-5.77401e-006 -0.000285813,-1.01045e-005 -0.000433532,-1.01045e-005 -0.0124411,0 -0.0225278,0.00991445 -0.0225278,0.0221438 0,0.0122332 0.0100867,0.0221486 0.0225278,0.0221486z"/>
   </clipPath>
   <clipPath id="id2">
    <path d="M0.102187 0.061205c0.00634852,0 0.0114903,-0.00511192 0.0114903,-0.0114162 9.62335e-007,-0.00631003 -0.00514175,-0.0114215 -0.0114903,-0.0114215 -3.89745e-005,-9.62335e-007 -7.84303e-005,4.81167e-006 -0.000118367,4.81167e-006 -0.00101863,-0.00910705 -0.00879093,-0.0161889 -0.0182281,-0.0161889 -0.00745088,-9.62335e-007 -0.0138644,0.0044176 -0.0167355,0.0107613 -8.85348e-005,-5.29284e-006 -0.000182362,-9.62335e-006 -0.000270897,-9.62335e-006 -0.00785554,-4.81167e-007 -0.0142238,0.00632879 -0.0142238,0.0141353 9.62335e-007,0.00780598 0.00636825,0.0141353 0.0142238,0.0141353z"/>
   </clipPath>
   <clipPath id="id3">
    <path d="M0.0229757 0.0766499l-0.0111698 0.0196071c-0.000635622,0.00111823 -0.00179331,0.00174423 -0.00298035,0.00174423 -0.000585099,-4.81167e-007 -0.00117694,-0.00015253 -0.00171344,-0.000468176 -0.00164511,-0.000965703 -0.00221144,-0.00309294 -0.00126114,-0.00476211l0.0111708 -0.019608c0.000950787,-0.00166436 0.00305301,-0.0022355 0.00469812,-0.00127509 0.00164078,0.00096474 0.00220663,0.00309294 0.00125585,0.00476211zm0.0182771 0l-0.0111693 0.0196071c-0.000635622,0.00111823 -0.00179331,0.00174423 -0.00298035,0.00174423 -0.00058125,-4.81167e-007 -0.00117212,-0.00015253 -0.00171392,-0.000468176 -0.00164463,-0.000965703 -0.00220663,-0.00309294 -0.00126066,-0.00476211l0.0111703 -0.019608c0.000950787,-0.00166436 0.00305349,-0.0022355 0.00469812,-0.00127509 0.00164559,0.00096474 0.00220663,0.00309294 0.00125585,0.00476211z"/>
   </clipPath>
 </defs>
 <g id="Layer_x0020_1">
  <metadata id="CorelCorpID_0Corel-Layer"/>
  <g style="clip-path:url(#id0)">
   <image transform="matrix(1 0 0 -1 -0.51942 0.192102)" x="-0.465067" y="-1.04212" width="3.10638" height="1.60409" xlink:href="icon_mix_rainfall_Images\icon_mix_rainfall_ImgID1.png"/>
  </g>
  <g style="clip-path:url(#id1)">
   <image transform="matrix(1 0 0 -1 -0.51942 0.192102)" x="-0.465067" y="-1.04212" width="3.10638" height="1.60409" xlink:href="icon_mix_rainfall_Images\icon_mix_rainfall_ImgID2.png"/>
  </g>
  <g style="clip-path:url(#id2)">
   <image transform="matrix(1 0 0 -1 -0.51942 0.192102)" x="-0.465067" y="-1.04212" width="3.10638" height="1.60409" xlink:href="icon_mix_rainfall_Images\icon_mix_rainfall_ImgID3.png"/>
  </g>
  <g style="clip-path:url(#id3)">
   <image transform="matrix(1 0 0 -1 -0.51942 0.192102)" x="-0.465067" y="-1.04212" width="3.10638" height="1.60409" xlink:href="icon_mix_rainfall_Images\icon_mix_rainfall_ImgID4.png"/>
  </g>
 </g>
</svg>
