<?xml version="1.0" encoding="UTF-8"?>
<!DOCTYPE svg PUBLIC "-//W3C//DTD SVG 1.1//EN" "http://www.w3.org/Graphics/SVG/1.1/DTD/svg11.dtd">
<!-- Creator: CorelDRAW -->
<svg xmlns="http://www.w3.org/2000/svg" xml:space="preserve" width="0.930181in" height="0.815528in" style="shape-rendering:geometricPrecision; text-rendering:geometricPrecision; image-rendering:optimizeQuality; fill-rule:evenodd; clip-rule:evenodd"
viewBox="0 0 0.0539856 0.0473313"
 xmlns:xlink="http://www.w3.org/1999/xlink">
 <defs>
   <clipPath id="id0">
    <path d="M0.0491819 0.0104758c0,0.00578618 -0.00469214,0.0104781 -0.0104785,0.0104781 -0.00578618,0 -0.0104758,-0.00469168 -0.0104758,-0.0104781 4.5699e-007,-0.0057864 0.0046894,-0.0104758 0.0104758,-0.0104758 0.00578663,0 0.0104781,0.0046894 0.0104785,0.0104758z"/>
   </clipPath>
   <clipPath id="id1">
    <path d="M0.0372933 0.0338175c0.00477349,0 0.00864419,-0.00380284 0.00864419,-0.00849704 2.28495e-007,-0.00469397 -0.00387093,-0.00849704 -0.00864442,-0.00849704 -3.01613e-005,0 -5.84947e-005,2.51344e-006 -8.88845e-005,4.79839e-006 -0.000769342,-0.00677807 -0.00661424,-0.0120474 -0.0137127,-0.0120474 -0.00560612,-2.28495e-007 -0.0104267,0.0032885 -0.0125878,0.00800806 -6.76345e-005,-2.28495e-006 -0.000135497,-4.5699e-006 -0.00020336,-4.5699e-006 -0.00591002,0 -0.0107004,0.00470814 -0.0107004,0.0105178 4.5699e-007,0.00580743 0.00479017,0.0105153 0.0107004,0.0105153z"/>
   </clipPath>
   <clipPath id="id2">
    <path d="M0.0485268 0.0338479c0.00301476,0 0.00545874,-0.00243004 0.00545874,-0.00542378 2.28495e-007,-0.00299602 -0.00244421,-0.00542378 -0.00545897,-0.00542378 -1.85081e-005,0 -3.74732e-005,2.51344e-006 -5.62097e-005,2.51344e-006 -0.000483724,-0.00432472 -0.00417483,-0.00768794 -0.00865607,-0.00768794 -0.00353847,0 -0.00658385,0.00209804 -0.00794751,0.00511052 -4.18146e-005,-2.28495e-007 -8.40861e-005,-2.51344e-006 -0.000128414,-2.51344e-006 -0.00373018,0 -0.00675477,0.00300562 -0.00675477,0.00671249 2.28495e-007,0.0037071 0.00302413,0.00671272 0.00675477,0.00671272z"/>
   </clipPath>
   <clipPath id="id3">
    <path d="M0.013643 0.0426186l-0.00234596 0.00392691c-0.000301613,0.000505202 -0.000849087,0.000785794 -0.00141073,0.000785794 -0.000275565,0 -0.0005541,-6.76345e-005 -0.000811385,-0.000210444 -0.00077871,-0.000432769 -0.00104308,-0.00139382 -0.000594087,-0.00214694l0.00234596 -0.00392714c0.000448764,-0.000753119 0.00144066,-0.00101018 0.00222188,-0.000575122 0.000776426,0.000432541 0.00104308,0.00139382 0.000594315,0.00214694zm0.0110674 0l-0.00234824 0.00392691c-0.000301842,0.000505202 -0.00084703,0.000785794 -0.0014105,0.000785794 -0.000273508,0 -0.000554329,-6.76345e-005 -0.000809329,-0.000210444 -0.000778482,-0.000432769 -0.00104536,-0.00139382 -0.000596372,-0.00214694l0.00234596 -0.00392714c0.000451734,-0.000753119 0.00144295,-0.00101018 0.00222166,-0.000575122 0.000779167,0.000432541 0.00104331,0.00139382 0.000596829,0.00214694zm0.0118765 0l-0.00234596 0.00392691c-0.000301613,0.000505202 -0.000846573,0.000785794 -0.00141027,0.000785794 -0.000276022,0 -0.000554329,-6.76345e-005 -0.000811614,-0.000210444 -0.000776197,-0.000432769 -0.00104308,-0.00139382 -0.000594087,-0.00214694l0.00234573 -0.00392714c0.000449449,-0.000753119 0.00144089,-0.00101018 0.00222211,-0.000575122 0.000779167,0.000432541 0.00104308,0.00139382 0.000594087,0.00214694z"/>
   </clipPath>
 </defs>
 <g id="Layer_x0020_1">
  <metadata id="CorelCorpID_0Corel-Layer"/>
  <g style="clip-path:url(#id0)">
   <image transform="matrix(1 0 0 -1 -0.24666 -0.64403)" x="-0.465091" y="-0.862506" width="1.47514" height="0.761745" xlink:href="icon_scattered_showers_Images\icon_scattered_showers_ImgID1.png"/>
  </g>
  <g style="clip-path:url(#id1)">
   <image transform="matrix(1 0 0 -1 -0.24666 -0.64403)" x="-0.465091" y="-0.862506" width="1.47514" height="0.761745" xlink:href="icon_scattered_showers_Images\icon_scattered_showers_ImgID2.png"/>
  </g>
  <g style="clip-path:url(#id2)">
   <image transform="matrix(1 0 0 -1 -0.24666 -0.64403)" x="-0.465091" y="-0.862506" width="1.47514" height="0.761745" xlink:href="icon_scattered_showers_Images\icon_scattered_showers_ImgID3.png"/>
  </g>
  <g style="clip-path:url(#id3)">
   <image transform="matrix(1 0 0 -1 -0.24666 -0.64403)" x="-0.465091" y="-0.862506" width="1.47514" height="0.761745" xlink:href="icon_scattered_showers_Images\icon_scattered_showers_ImgID4.png"/>
  </g>
 </g>
</svg>
