<?xml version="1.0" encoding="UTF-8"?>
<!DOCTYPE svg PUBLIC "-//W3C//DTD SVG 1.1//EN" "http://www.w3.org/Graphics/SVG/1.1/DTD/svg11.dtd">
<!-- Creator: CorelDRAW -->
<svg xmlns="http://www.w3.org/2000/svg" xml:space="preserve" width="0.942909in" height="0.969406in" style="shape-rendering:geometricPrecision; text-rendering:geometricPrecision; image-rendering:optimizeQuality; fill-rule:evenodd; clip-rule:evenodd"
viewBox="0 0 0.0363723 0.0373944"
 xmlns:xlink="http://www.w3.org/1999/xlink">
 <defs>
   <clipPath id="id0">
    <path d="M0.00847075 0.0335812c-0.00144533,0 -0.00261639,-0.00118138 -0.00261639,-0.00263643 0,-0.00145672 0.00117045,-0.00263795 0.00261608,-0.00263795 0.00144442,-1.51868e-007 0.00261471,0.00118138 0.00261471,0.00263795 1.51868e-007,0.0014549 -0.00117045,0.00263643 -0.00261441,0.00263643zm0.0151145 0c-0.00144411,0 -0.00261654,-0.00118138 -0.00261654,-0.00263643 1.51868e-007,-0.00145672 0.00117212,-0.00263795 0.00261623,-0.00263795 0.00144563,-1.51868e-007 0.00261623,0.00118138 0.00261623,0.00263795 6.07473e-007,0.0014549 -0.0011706,0.00263643 -0.00261593,0.00263643zm-0.00729711 0.00381311c-0.00144351,0 -0.00261623,-0.00117971 -0.00261623,-0.00263628 3.03736e-007,-0.00145672 0.00117212,-0.00263643 0.00261623,-0.00263643 0.00144472,0 0.00261623,0.00117986 0.00261623,0.00263643 1.51868e-007,0.00145642 -0.00117212,0.00263643 -0.00261623,0.00263628z"/>
   </clipPath>
   <clipPath id="id1">
    <path d="M0.0287695 0.0155022c-0.00435543,0 -0.00789851,-0.00354415 -0.00789851,-0.00789836 3.03736e-007,-0.00350238 0.00235198,-0.00662221 0.00571738,-0.00758749 0.000148071,-4.22194e-005 0.000301458,-1.67055e-006 0.00040731,0.00010403 0.000106004,0.000107219 0.000146097,0.000262732 0.0001057,0.00040731 -0.000184672,0.000644984 -0.000279741,0.00130273 -0.000279741,0.00195242 4.55605e-007,0.00389861 0.00317116,0.00707144 0.00707129,0.00707144 0.000648781,0 0.00130591,-9.47657e-005 0.00195257,-0.000279741 0.000144579,-4.05488e-005 0.000300092,-1.51868e-006 0.00040564,0.0001057 0.000106004,0.000105548 0.000146249,0.000261213 0.000105852,0.000405792 -0.000966641,0.00336692 -0.00408692,0.00571905 -0.00758749,0.0057189z"/>
   </clipPath>
   <clipPath id="id2">
    <path d="M0.0247872 0.024077c0.00317283,0 0.00574502,-0.00252921 0.00574502,-0.00564752 1.51868e-007,-0.00312013 -0.0025728,-0.00564904 -0.00574548,-0.00564904 -2.00466e-005,-1.51868e-007 -3.88783e-005,3.03736e-006 -5.90767e-005,3.03736e-006 -0.000509366,-0.0045035 -0.00439461,-0.00800573 -0.00911422,-0.00800573 -0.00372578,-1.51868e-007 -0.00693005,0.00218569 -0.00836627,0.00532268 -4.44974e-005,-1.67055e-006 -9.02097e-005,-4.70791e-006 -0.000135315,-4.70791e-006 -0.00392822,0 -0.00711184,0.00313076 -0.00711184,0.00699064 0,0.0038614 0.00318361,0.00699064 0.00711184,0.00699064z"/>
   </clipPath>
   <clipPath id="id3">
    <path d="M0.0322532 0.0240957c0.00200405,0 0.00362798,-0.0016136 0.00362798,-0.0036049 4.55605e-007,-0.00198993 -0.00162438,-0.00360338 -0.00362828,-0.00360338 -1.23013e-005,-1.51868e-007 -2.32358e-005,1.51868e-006 -3.5689e-005,1.51868e-006 -0.000323175,-0.00287441 -0.0027763,-0.0051096 -0.00575474,-0.0051096 -0.00235153,-1.51868e-007 -0.00437593,0.0013943 -0.00528213,0.00339653 -2.82475e-005,-1.67055e-006 -5.61912e-005,-3.18923e-006 -8.56537e-005,-3.18923e-006 -0.0024794,0 -0.00448938,0.00199767 -0.00448938,0.00446143 4.55605e-007,0.00246391 0.00200998,0.00446158 0.00448938,0.00446158z"/>
   </clipPath>
 </defs>
 <g id="Layer_x0020_1">
  <metadata id="CorelCorpID_0Corel-Layer"/>
  <g style="clip-path:url(#id0)">
   <image transform="matrix(1 0 0 -1 -0.163942 -0.103398)" x="-0.471455" y="-0.410934" width="0.980449" height="0.506291" xlink:href="icon_hail_night_Images\icon_hail_night_ImgID1.png"/>
  </g>
  <g style="clip-path:url(#id1)">
   <image transform="matrix(1 0 0 -1 -0.163942 -0.103398)" x="-0.471455" y="-0.410934" width="0.980449" height="0.506291" xlink:href="icon_hail_night_Images\icon_hail_night_ImgID2.png"/>
  </g>
  <g style="clip-path:url(#id2)">
   <image transform="matrix(1 0 0 -1 -0.163942 -0.103398)" x="-0.471455" y="-0.410934" width="0.980449" height="0.506291" xlink:href="icon_hail_night_Images\icon_hail_night_ImgID3.png"/>
  </g>
  <g style="clip-path:url(#id3)">
   <image transform="matrix(1 0 0 -1 -0.163942 -0.103398)" x="-0.471455" y="-0.410934" width="0.980449" height="0.506291" xlink:href="icon_hail_night_Images\icon_hail_night_ImgID4.png"/>
  </g>
 </g>
</svg>
