<?xml version="1.0" encoding="UTF-8"?>
<!DOCTYPE svg PUBLIC "-//W3C//DTD SVG 1.1//EN" "http://www.w3.org/Graphics/SVG/1.1/DTD/svg11.dtd">
<!-- Creator: CorelDRAW -->
<svg xmlns="http://www.w3.org/2000/svg" xml:space="preserve" width="0.930142in" height="0.887906in" style="shape-rendering:geometricPrecision; text-rendering:geometricPrecision; image-rendering:optimizeQuality; fill-rule:evenodd; clip-rule:evenodd"
viewBox="0 0 0.0301807 0.0288103"
 xmlns:xlink="http://www.w3.org/1999/xlink">
 <defs>
   <clipPath id="id0">
    <path d="M0.0208488 0.0162337c0.00266976,0 0.00483365,-0.00212735 0.00483365,-0.00475036 5.10983e-007,-0.00262467 -0.00216401,-0.00475048 -0.00483416,-0.00475048 -1.52018e-005,-2.55492e-007 -3.25752e-005,1.27746e-006 -4.82879e-005,1.27746e-006 -0.000429865,-0.00378817 -0.00369799,-0.00673412 -0.00766654,-0.00673412 -0.00313373,-2.55492e-007 -0.00583045,0.00183839 -0.00703739,0.00447723 -3.8707e-005,-1.53295e-006 -7.57533e-005,-2.68266e-006 -0.000115099,-2.68266e-006 -0.00330274,0 -0.00598093,0.0026322 -0.00598093,0.00587899 2.55492e-007,0.00324781 0.00267806,0.00588027 0.00598093,0.00588027z"/>
   </clipPath>
   <clipPath id="id1">
    <path d="M0.0271304 0.0162494c0.00168522,0 0.00305031,-0.00135717 0.00305031,-0.0030309 2.55492e-007,-0.00167526 -0.00136522,-0.0030323 -0.0030507,-0.0030323 -1.03474e-005,-2.55492e-007 -2.09503e-005,1.27746e-006 -3.12977e-005,1.27746e-006 -0.000272099,-0.00241784 -0.00233417,-0.00429801 -0.00483952,-0.00429801 -0.00197929,-2.55492e-007 -0.00368087,0.00117283 -0.00444313,0.00285703 -2.45272e-005,-1.4052e-006 -4.84157e-005,-2.55492e-006 -7.19209e-005,-2.55492e-006 -0.00208545,-1.27746e-007 -0.00377642,0.00168024 -0.00377642,0.00375279 1.27746e-007,0.00207242 0.00169072,0.00375279 0.00377642,0.00375279z"/>
   </clipPath>
   <clipPath id="id2">
    <path d="M0.0068938 0.0204166l-0.002896 0.0051571c-0.000164664,0.000294326 -0.000464611,0.000459118 -0.000773245,0.000459118 -0.000151507,0 -0.000304674,-4.04954e-005 -0.000444555,-0.000124169 -0.000426288,-0.000252553 -0.000572684,-0.000813358 -0.000326902,-0.0012514l0.00289791 -0.00515735c0.000245911,-0.00043804 0.000790747,-0.000588142 0.00121703,-0.000334566 0.000426671,0.00025217 0.000571407,0.000813358 0.000325752,0.00125127zm0.00474295 0l-0.00445654 0.00793595c-0.000164792,0.000294071 -0.000465633,0.000457713 -0.00077299,0.000457713 -0.000151251,-1.27746e-007 -0.000304546,-3.9218e-005 -0.000444555,-0.000121614 -0.000426032,-0.000253703 -0.000572812,-0.000813358 -0.000326902,-0.00125268l0.00445769 -0.00793608c0.000245911,-0.00043804 0.000791002,-0.000588142 0.00121729,-0.000334566 0.000426288,0.00025217 0.000572684,0.000813358 0.000326007,0.00125127zm0.00926272 0l-0.00267385 0.00476109c-0.000166325,0.000294071 -0.000465889,0.000458991 -0.000773118,0.000458991 -0.000151634,-1.27746e-007 -0.000304674,-4.04954e-005 -0.000445833,-0.000122891 -0.000426288,-0.000253959 -0.000571535,-0.000813358 -0.000325624,-0.00125268l0.0026741 -0.00476121c0.000245911,-0.00043804 0.000791002,-0.000588142 0.00121729,-0.000334566 0.000426415,0.00025217 0.000572812,0.000813358 0.000327029,0.00125127zm-0.0044094 0l-0.00356411 0.00634858c-0.000166325,0.000293943 -0.000465889,0.000458991 -0.000773118,0.000458991 -0.000151634,-2.55492e-007 -0.000304674,-4.06232e-005 -0.000445961,-0.000123019 -0.000426032,-0.000253703 -0.000571279,-0.000814635 -0.000325624,-0.00125268l0.00356615 -0.00634858c0.000245783,-0.00043804 0.000790747,-0.000588142 0.00121716,-0.000334566 0.000426415,0.00025217 0.000572684,0.000813358 0.000325496,0.00125127z"/>
   </clipPath>
 </defs>
 <g id="Layer_x0020_1">
  <metadata id="CorelCorpID_0Corel-Layer"/>
  <g style="clip-path:url(#id0)">
   <image transform="matrix(1 0 0 -1 -0.137902 0.0510014)" x="-0.465071" y="-0.276674" width="0.824716" height="0.425873" xlink:href="icon_heavy_rain_Images\icon_heavy_rain_ImgID1.png"/>
  </g>
  <g style="clip-path:url(#id1)">
   <image transform="matrix(1 0 0 -1 -0.137902 0.0510014)" x="-0.465071" y="-0.276674" width="0.824716" height="0.425873" xlink:href="icon_heavy_rain_Images\icon_heavy_rain_ImgID2.png"/>
  </g>
  <g style="clip-path:url(#id2)">
   <image transform="matrix(1 0 0 -1 -0.137902 0.0510014)" x="-0.465071" y="-0.276674" width="0.824716" height="0.425873" xlink:href="icon_heavy_rain_Images\icon_heavy_rain_ImgID3.png"/>
  </g>
 </g>
</svg>
