<?xml version="1.0" encoding="UTF-8"?>
<!DOCTYPE svg PUBLIC "-//W3C//DTD SVG 1.1//EN" "http://www.w3.org/Graphics/SVG/1.1/DTD/svg11.dtd">
<!-- Creator: CorelDRAW -->
<svg xmlns="http://www.w3.org/2000/svg" xml:space="preserve" width="0.94289in" height="1.04067in" style="shape-rendering:geometricPrecision; text-rendering:geometricPrecision; image-rendering:optimizeQuality; fill-rule:evenodd; clip-rule:evenodd"
viewBox="0 0 1.06611 1.17667"
 xmlns:xlink="http://www.w3.org/1999/xlink">
 <defs>
   <clipPath id="id0">
    <path d="M0.843274 0.454369c-0.127673,0 -0.231518,-0.10384 -0.231518,-0.231514 4.4515e-006,-0.102616 0.0688958,-0.194063 0.16759,-0.222401 0.00428234,-0.001193 0.00879171,0 0.0119389,0.00309379 0.00309824,0.00309824 0.00427789,0.00765658 0.00304928,0.0119389 -0.00542193,0.01891 -0.00815515,0.0381404 -0.00815515,0.0572329 0,0.11427 0.0929517,0.207231 0.207231,0.207231 0.019048,-4.4515e-006 0.0383185,-0.00273767 0.0572285,-0.00820411 0.00428679,-0.0011841 0.00884068,0 0.0119389,0.00309824 0.00309824,0.00314276 0.00428234,0.00770109 0.00304928,0.0119389 -0.0282937,0.0986897 -0.119741,0.167586 -0.222352,0.167586z"/>
   </clipPath>
   <clipPath id="id1">
    <path d="M0.726538 0.721428c0.0929963,0 0.168405,-0.0740907 0.168405,-0.165538 0,-0.0914471 -0.0754084,-0.165538 -0.168409,-0.165538 -0.000592049,0 -0.00113958,4.4515e-005 -0.00173163,4.4515e-005 -0.0149926,-0.132005 -0.128858,-0.234661 -0.267148,-0.234661 -0.109218,0 -0.203126,0.064066 -0.245233,0.156016 -0.00131764,-4.4515e-005 -0.00263974,-8.903e-005 -0.00396183,-8.903e-005 -0.115142,-4.4515e-006 -0.208459,0.0917231 -0.208459,0.204858 0,0.113184 0.0933168,0.204907 0.208459,0.204907z"/>
   </clipPath>
   <clipPath id="id2">
    <path d="M0.945387 0.721971c0.0587331,0 0.106342,-0.0472927 0.106342,-0.105616 4.4515e-006,-0.0583725 -0.0476132,-0.105665 -0.106346,-0.105665 -0.000365023,0 -0.000725594,4.4515e-005 -0.00109062,4.4515e-005 -0.00943273,-0.0842491 -0.0813378,-0.149771 -0.168641,-0.149771 -0.0689359,0 -0.128261,0.0408737 -0.154828,0.0995578 -0.000819076,0 -0.00168712,-8.903e-005 -0.00250619,-8.903e-005 -0.0726752,0 -0.131595,0.0585506 -0.131595,0.130772 4.4515e-006,0.0722211 0.05892,0.130772 0.131595,0.130772z"/>
   </clipPath>
   <clipPath id="id3">
    <path d="M0.204493 0.924189c-0.0173564,0 -0.0314409,-0.0138931 -0.0314409,-0.0309824 4.4515e-006,-0.0171338 0.0140845,-0.0310269 0.0314409,-0.0310269 0.0173163,-4.4515e-006 0.0313964,0.0138976 0.0313964,0.0310269 0,0.0170849 -0.0140801,0.0309869 -0.0313964,0.0309824zm0.157018 0c-0.0173564,0 -0.0313964,-0.0138931 -0.0313964,-0.0309824 4.4515e-006,-0.0171338 0.0140356,-0.0310269 0.0313964,-0.0310269 0.0173653,-4.4515e-006 0.0313964,0.0138976 0.0313964,0.0310269 0,0.0170849 -0.0140356,0.0309869 -0.0313964,0.0309824zm0.157067 0c-0.0173608,0 -0.0314409,-0.0138931 -0.0314409,-0.0309824 0,-0.0171338 0.0140801,-0.0310269 0.0314409,-0.0310269 0.0173163,-4.4515e-006 0.031392,0.0138976 0.031392,0.0310269 0,0.0170849 -0.0140801,0.0309869 -0.031392,0.0309824zm0.157018 0c-0.0173608,0 -0.0313964,-0.0138931 -0.0313964,-0.0309824 0,-0.0171338 0.0140311,-0.0310269 0.031392,-0.0310269 0.0173608,-4.4515e-006 0.0313964,0.0138976 0.0313964,0.0310269 0,0.0170849 -0.0140356,0.0309869 -0.031392,0.0309824zm-0.471102 0.25248c-0.0173564,0 -0.0314409,-0.0138976 -0.0314409,-0.0310314 4.4515e-006,-0.0171338 0.0140845,-0.0309824 0.0314409,-0.0309824 0.0173163,-4.4515e-006 0.0313964,0.0138531 0.0313964,0.0309824 0,0.0171294 -0.0140801,0.0310314 -0.0313964,0.0310314zm0.157018 0c-0.0173564,0 -0.0313964,-0.0138976 -0.0313964,-0.0310314 4.4515e-006,-0.0171338 0.0140356,-0.0309824 0.0313964,-0.0309824 0.0173653,-4.4515e-006 0.0313964,0.0138531 0.0313964,0.0309824 0,0.0171294 -0.0140356,0.0310314 -0.0313964,0.0310314zm0.157067 0c-0.0173608,0 -0.0314409,-0.0138976 -0.0314409,-0.0310314 0,-0.0171338 0.0140801,-0.0309824 0.0314409,-0.0309824 0.0173163,-4.4515e-006 0.031392,0.0138531 0.031392,0.0309824 0,0.0171294 -0.0140801,0.0310314 -0.031392,0.0310314zm0.157018 0c-0.0173608,0 -0.0313964,-0.0138976 -0.0313964,-0.0310314 0,-0.0171338 0.0140311,-0.0309824 0.031392,-0.0309824 0.0173608,-4.4515e-006 0.0313964,0.0138531 0.0313964,0.0309824 0,0.0171294 -0.0140356,0.0310314 -0.031392,0.0310314zm-0.549653 -0.124077c-0.0173163,0 -0.0313964,-0.0138486 -0.0313964,-0.0309824 4.4515e-006,-0.0171338 0.0140801,-0.0310314 0.0313964,-0.0310314 0.0173608,0 0.0314365,0.0138976 0.0314365,0.0310314 4.4515e-006,0.0171338 -0.0140756,0.0309824 -0.0314365,0.0309824zm0.157062 0c-0.0173608,0 -0.0313964,-0.0138486 -0.0313964,-0.0309824 4.4515e-006,-0.0171338 0.0140356,-0.0310314 0.0313964,-0.0310314 0.0173653,0 0.031392,0.0138976 0.031392,0.0310314 4.4515e-006,0.0171338 -0.0140311,0.0309824 -0.031392,0.0309824zm0.157018 0c-0.0173163,0 -0.0313964,-0.0138486 -0.0313964,-0.0309824 0,-0.0171338 0.0140801,-0.0310314 0.0313964,-0.0310314 0.0173608,0 0.0314409,0.0138976 0.0314409,0.0310314 0,0.0171338 -0.0140801,0.0309824 -0.0314409,0.0309824zm0.157067 0c-0.0173653,0 -0.0314009,-0.0138486 -0.0314009,-0.0309824 0,-0.0171338 0.0140356,-0.0310314 0.0313964,-0.0310314 0.0173608,0 0.0313964,0.0138976 0.0313964,0.0310314 0,0.0171338 -0.0140356,0.0309824 -0.031392,0.0309824z"/>
   </clipPath>
 </defs>
 <g id="Layer_x0020_1">
  <metadata id="CorelCorpID_0Corel-Layer"/>
  <g style="clip-path:url(#id0)">
   <image transform="matrix(1 0 0 -1 -4.80539 -7.71053)" x="0.471445" y="-14.385" width="28.7385" height="14.8402" xlink:href="icon_snow_night_Images\icon_snow_night_ImgID1.png"/>
  </g>
  <g style="clip-path:url(#id1)">
   <image transform="matrix(1 0 0 -1 -4.80539 -7.71053)" x="0.471445" y="-14.385" width="28.7385" height="14.8402" xlink:href="icon_snow_night_Images\icon_snow_night_ImgID2.png"/>
  </g>
  <g style="clip-path:url(#id2)">
   <image transform="matrix(1 0 0 -1 -4.80539 -7.71053)" x="0.471445" y="-14.385" width="28.7385" height="14.8402" xlink:href="icon_snow_night_Images\icon_snow_night_ImgID3.png"/>
  </g>
  <g style="clip-path:url(#id3)">
   <image transform="matrix(1 0 0 -1 -4.80539 -7.71053)" x="0.471445" y="-14.385" width="28.7385" height="14.8402" xlink:href="icon_snow_night_Images\icon_snow_night_ImgID4.png"/>
  </g>
 </g>
</svg>
