<?xml version="1.0" encoding="UTF-8"?>
<!DOCTYPE svg PUBLIC "-//W3C//DTD SVG 1.1//EN" "http://www.w3.org/Graphics/SVG/1.1/DTD/svg11.dtd">
<!-- Creator: CorelDRAW -->
<svg xmlns="http://www.w3.org/2000/svg" xml:space="preserve" width="0.875008in" height="0.569425in" style="shape-rendering:geometricPrecision; text-rendering:geometricPrecision; image-rendering:optimizeQuality; fill-rule:evenodd; clip-rule:evenodd"
viewBox="0 0 0.222282 0.144653"
 xmlns:xlink="http://www.w3.org/1999/xlink">
 <defs>
   <clipPath id="id0">
    <path d="M0.144643 0.0723267c0,0.0399464 -0.0323814,0.0723267 -0.0723277,0.0723267 -0.0399344,-1.00013e-006 -0.0723157,-0.0323804 -0.0723157,-0.0723267 1.00013e-006,-0.0399454 0.0323804,-0.0723267 0.0723157,-0.0723267 0.0399464,0 0.0723267,0.0323814 0.0723277,0.0723267z"/>
   </clipPath>
   <clipPath id="id1">
    <path d="M0.109375 0.0776295c-0.00389953,0 -0.00705295,-0.00316343 -0.00705295,-0.00706395 0,-0.00388952 0.00315242,-0.00705295 0.00705295,-0.00705295 0.00390153,-1.00013e-006 0.00705395,0.00316343 0.00705395,0.00705295 1.00013e-006,0.00390053 -0.00315342,0.00706395 -0.00705395,0.00706395zm0.0352788 0c-0.00389052,0 -0.00705495,-0.00316343 -0.00705495,-0.00706395 1.00013e-006,-0.00388952 0.00316443,-0.00705295 0.00705495,-0.00705295 0.00389953,-1.00013e-006 0.00706295,0.00316343 0.00706295,0.00705295 1.00013e-006,0.00390053 -0.00316343,0.00706395 -0.00706295,0.00706395zm0.0352878 0c-0.00390053,0 -0.00705395,-0.00316343 -0.00705395,-0.00706395 0,-0.00388952 0.00315342,-0.00705295 0.00705395,-0.00705295 0.00390053,-1.00013e-006 0.00705295,0.00316343 0.00705295,0.00705295 0,0.00390053 -0.00315242,0.00706395 -0.00705295,0.00706395zm0.0352778 0c-0.00389052,0 -0.00705395,-0.00316343 -0.00705395,-0.00706395 1.00013e-006,-0.00388952 0.00316343,-0.00705295 0.00705295,-0.00705295 0.00390053,-1.00013e-006 0.00706395,0.00316343 0.00706395,0.00705295 1.00013e-006,0.00390053 -0.00316343,0.00706395 -0.00706295,0.00706395zm-0.0705655 0.0493947c-0.00389052,0 -0.00705495,-0.00316343 -0.00705495,-0.00706395 1.00013e-006,-0.00388952 0.00316443,-0.00705295 0.00705495,-0.00705295 0.00389953,0 0.00706295,0.00316343 0.00706295,0.00705295 1.00013e-006,0.00390053 -0.00316343,0.00706395 -0.00706295,0.00706395zm0.0352878 0c-0.00390053,0 -0.00705395,-0.00316343 -0.00705395,-0.00706395 0,-0.00388952 0.00315342,-0.00705295 0.00705395,-0.00705295 0.00390053,0 0.00705295,0.00316343 0.00705295,0.00705295 0,0.00390053 -0.00315242,0.00706395 -0.00705295,0.00706395zm-0.0882049 -0.0247023c-0.00389953,0 -0.00706395,-0.00315242 -0.00706395,-0.00705395 0,-0.00390053 0.00316343,-0.00705295 0.00706395,-0.00705295 0.00389152,0 0.00705395,0.00315342 0.00705395,0.00705295 0,0.00390053 -0.00316343,0.00705395 -0.00705395,0.00705395zm0.0352788 0c-0.00389052,0 -0.00705495,-0.00315242 -0.00705495,-0.00705395 1.00013e-006,-0.00390053 0.00316343,-0.00705295 0.00705395,-0.00705295 0.00390053,0 0.00706395,0.00315342 0.00706395,0.00705295 0,0.00390053 -0.00316343,0.00705395 -0.00706295,0.00705395zm0.0352878 0c-0.00390153,0 -0.00706495,-0.00315242 -0.00706495,-0.00705395 0,-0.00390053 0.00316343,-0.00705295 0.00706395,-0.00705295 0.00389052,0 0.00705295,0.00315342 0.00705295,0.00705295 1.00013e-006,0.00390053 -0.00316243,0.00705395 -0.00705195,0.00705395zm0.0352768 0c-0.00388952,0 -0.00705395,-0.00315242 -0.00705395,-0.00705395 1.00013e-006,-0.00390053 0.00316343,-0.00705295 0.00705395,-0.00705295 0.00390053,0 0.00705395,0.00315342 0.00705395,0.00705295 0,0.00390053 -0.00315342,0.00705395 -0.00705395,0.00705395z"/>
   </clipPath>
 </defs>
 <g id="Layer_x0020_1">
  <metadata id="CorelCorpID_0Corel-Layer"/>
  <g style="clip-path:url(#id0)">
   <image transform="matrix(1 0 0 -1 -1.07965 -2.84011)" x="-0.437504" y="-3.78581" width="6.45679" height="3.3342" xlink:href="icon_dust_Images\icon_dust_ImgID1.png"/>
  </g>
  <g style="clip-path:url(#id1)">
   <image transform="matrix(1 0 0 -1 -1.07965 -2.84011)" x="-0.437504" y="-3.78581" width="6.45679" height="3.3342" xlink:href="icon_dust_Images\icon_dust_ImgID2.png"/>
  </g>
 </g>
</svg>
