<?xml version="1.0" encoding="UTF-8"?>
<!DOCTYPE svg PUBLIC "-//W3C//DTD SVG 1.1//EN" "http://www.w3.org/Graphics/SVG/1.1/DTD/svg11.dtd">
<!-- Creator: CorelDRAW -->
<svg xmlns="http://www.w3.org/2000/svg" xml:space="preserve" width="0.930138in" height="0.882299in" style="shape-rendering:geometricPrecision; text-rendering:geometricPrecision; image-rendering:optimizeQuality; fill-rule:evenodd; clip-rule:evenodd"
viewBox="0 0 1.07325 1.01805"
 xmlns:xlink="http://www.w3.org/1999/xlink">
 <defs>
   <clipPath id="id0">
    <path d="M0.993786 0.208312c0,0.115041 -0.0932854,0.208272 -0.208322,0.208272 -0.115041,0 -0.208267,-0.0932264 -0.208267,-0.208267 0,-0.115041 0.0932264,-0.208317 0.208267,-0.208317 0.115036,-4.54275e-006 0.208317,0.0932764 0.208322,0.208312z"/>
   </clipPath>
   <clipPath id="id1">
    <path d="M0.443141 0.592629c-0.0265978,-4.54275e-005 -0.0592466,0.0188343 -0.0725432,0.0418978l-0.0849041 0.147308c-0.0133012,0.0230636 -0.00246671,0.0403624 0.0240357,0.038409l0.0693815 -0.00511968c0.0265024,-0.00194884 0.0378002,0.0156316 0.0251078,0.0390177l-0.0770951 0.142193c-0.0127424,0.0234361 -0.00632351,0.028742 0.0142279,0.0118157l0.278902 -0.229804c0.0205514,-0.0169218 0.0156225,-0.0296142 -0.0109253,-0.0282696l-0.106578 0.00544222c-0.0265478,0.00139008 -0.0374323,-0.0163675 -0.0241356,-0.0394765l0.0469176 -0.0813789c0.0133012,-0.0230636 0.00242129,-0.0419387 -0.0241765,-0.0419841l-0.0582154 -4.99703e-005z"/>
   </clipPath>
   <clipPath id="id2">
    <path d="M0.741386 0.656337c0.0949481,0 0.171907,-0.075655 0.171907,-0.168931 0,-0.0933309 -0.0769588,-0.168977 -0.171911,-0.168977 -0.000554216,-4.54275e-006 -0.00116294,9.08551e-005 -0.00171716,9.08551e-005 -0.0152954,-0.134711 -0.131504,-0.239471 -0.272629,-0.239471 -0.111456,-4.54275e-006 -0.207336,0.0653793 -0.250256,0.159214 -0.00139463,-4.99703e-005 -0.0026984,-0.000140825 -0.00409302,-0.000140825 -0.117453,0 -0.212687,0.0936489 -0.212687,0.209107 0,0.115504 0.0952297,0.209107 0.212687,0.209107z"/>
   </clipPath>
   <clipPath id="id3">
    <path d="M0.964767 0.656896c0.0599371,0 0.108481,-0.0482668 0.108481,-0.107831 4.54275e-006,-0.0595237 -0.0485439,-0.107786 -0.108485,-0.107786 -0.000367963,-4.54275e-006 -0.000740469,4.54275e-005 -0.00111297,4.54275e-005 -0.00966698,-0.0859807 -0.0830006,-0.152841 -0.172093,-0.152841 -0.070399,-4.54275e-006 -0.130895,0.041707 -0.158006,0.101599 -0.000881294,-4.99703e-005 -0.00171716,-9.53978e-005 -0.00255757,-9.53978e-005 -0.074165,0 -0.134288,0.0597554 -0.134288,0.133452 0,0.0737016 0.0601233,0.133457 0.134288,0.133457z"/>
   </clipPath>
 </defs>
 <g id="Layer_x0020_1">
  <metadata id="CorelCorpID_0Corel-Layer"/>
  <g style="clip-path:url(#id0)">
   <image transform="matrix(1 0 0 -1 -4.9039 -3.22063)" x="0.465069" y="-12.3559" width="29.3276" height="15.1444" xlink:href="icon_scattered_thundercast_Images\icon_scattered_thundercast_ImgID1.png"/>
  </g>
  <g style="clip-path:url(#id1)">
   <image transform="matrix(1 0 0 -1 -4.9039 -3.22063)" x="0.465069" y="-12.3559" width="29.3276" height="15.1444" xlink:href="icon_scattered_thundercast_Images\icon_scattered_thundercast_ImgID2.png"/>
  </g>
  <g style="clip-path:url(#id2)">
   <image transform="matrix(1 0 0 -1 -4.9039 -3.22063)" x="0.465069" y="-12.3559" width="29.3276" height="15.1444" xlink:href="icon_scattered_thundercast_Images\icon_scattered_thundercast_ImgID3.png"/>
  </g>
  <g style="clip-path:url(#id3)">
   <image transform="matrix(1 0 0 -1 -4.9039 -3.22063)" x="0.465069" y="-12.3559" width="29.3276" height="15.1444" xlink:href="icon_scattered_thundercast_Images\icon_scattered_thundercast_ImgID4.png"/>
  </g>
 </g>
</svg>
