<?xml version="1.0" encoding="UTF-8"?>
<!DOCTYPE svg PUBLIC "-//W3C//DTD SVG 1.1//EN" "http://www.w3.org/Graphics/SVG/1.1/DTD/svg11.dtd">
<!-- Creator: CorelDRAW -->
<svg xmlns="http://www.w3.org/2000/svg" xml:space="preserve" width="0.94289in" height="0.940516in" style="shape-rendering:geometricPrecision; text-rendering:geometricPrecision; image-rendering:optimizeQuality; fill-rule:evenodd; clip-rule:evenodd"
viewBox="0 0 1.06611 1.06342"
 xmlns:xlink="http://www.w3.org/1999/xlink">
 <defs>
   <clipPath id="id0">
    <path d="M0.843274 0.4544c-0.127673,0 -0.231518,-0.103889 -0.231518,-0.231563 4.4515e-006,-0.102611 0.0688958,-0.194063 0.16759,-0.222357 0.00428234,-0.00123307 0.00879171,-4.89665e-005 0.0119389,0.00304928 0.00309824,0.00314721 0.00427789,0.00770109 0.00304928,0.0119389 -0.00542193,0.01891 -0.00815515,0.038185 -0.00815515,0.0572285 0,0.114279 0.0929517,0.207275 0.207231,0.207275 0.019048,0 0.0383185,-0.00277774 0.0572285,-0.00819966 0.00428679,-0.0011841 0.00884068,-4.4515e-005 0.0119389,0.00309824 0.00309824,0.00309824 0.00428234,0.00765658 0.00304928,0.0118944 -0.0282937,0.0986942 -0.119741,0.167635 -0.222352,0.167635z"/>
   </clipPath>
   <clipPath id="id1">
    <path d="M0.726538 0.690013c0.0929963,0 0.168405,-0.0740863 0.168405,-0.165538 0,-0.0914471 -0.0754084,-0.165538 -0.168409,-0.165538 -0.000592049,0 -0.00113958,4.89665e-005 -0.00173163,9.34815e-005 -0.0149926,-0.132049 -0.128858,-0.234705 -0.267148,-0.234705 -0.109218,-4.4515e-006 -0.203126,0.064066 -0.245233,0.156012 -0.00131764,-4.4515e-005 -0.00263974,-8.903e-005 -0.00396183,-8.903e-005 -0.115142,0 -0.208459,0.0917231 -0.208459,0.204907 0,0.113139 0.0933168,0.204858 0.208459,0.204858z"/>
   </clipPath>
   <clipPath id="id2">
    <path d="M0.945387 0.690606c0.0587331,0 0.106342,-0.0473417 0.106342,-0.105665 4.4515e-006,-0.0583681 -0.0476132,-0.105665 -0.106346,-0.105665 -0.000365023,0 -0.000725594,4.89665e-005 -0.00109062,4.89665e-005 -0.00943273,-0.0842535 -0.0813378,-0.149775 -0.168641,-0.149775 -0.0689359,0 -0.128261,0.0408737 -0.154828,0.0995622 -0.000819076,-4.4515e-006 -0.00168712,-4.89665e-005 -0.00250619,-4.89665e-005 -0.0726752,0 -0.131595,0.058555 -0.131595,0.130772 4.4515e-006,0.0722211 0.05892,0.130776 0.131595,0.130776z"/>
   </clipPath>
   <clipPath id="id3">
    <path d="M0.265959 0.861659l-0.0456546 0.076548c-0.00582701,0.00979775 -0.0164928,0.0153132 -0.0273856,0.0153132 -0.00537296,-4.4515e-006 -0.0107949,-0.0013221 -0.0158117,-0.00409983 -0.0151217,-0.00847565 -0.0202721,-0.0272031 -0.0115739,-0.0418307l0.045659 -0.0765524c0.0087472,-0.0146232 0.0280222,-0.0196801 0.0431973,-0.0111599 0.0151262,0.00842669 0.0202766,0.0271541 0.0115694,0.0417818zm0.254715 0l-0.0456101 0.076548c-0.00588043,0.00979775 -0.0165017,0.0153132 -0.0274346,0.0153132 -0.00537296,-4.4515e-006 -0.0107993,-0.0013221 -0.0157672,-0.00409983 -0.0151217,-0.00847565 -0.0203211,-0.0272031 -0.0116184,-0.0418307l0.045659 -0.0765524c0.0087472,-0.0146232 0.0280222,-0.0196801 0.0431929,-0.0111599 0.0151351,0.00842669 0.0203211,0.0271541 0.0115783,0.0417818zm0.25475 0l-0.0456546 0.076548c-0.00587598,0.00979775 -0.0164973,0.0153132 -0.0274301,0.0153132 -0.00532844,-4.4515e-006 -0.0107993,-0.0013221 -0.0157672,-0.00409983 -0.0151262,-0.00847565 -0.0203211,-0.0272031 -0.0115739,-0.0418307l0.0456101 -0.0765524c0.00875165,-0.0146232 0.0280222,-0.0196801 0.0431973,-0.0111599 0.0151752,0.00842669 0.0203211,0.0271541 0.0116184,0.0417818zm-0.430402 0.109903l-0.0456635 0.076548c-0.00587598,0.00979775 -0.0164884,0.0153132 -0.0274301,0.0153132 -0.00532844,-4.4515e-006 -0.0107504,-0.0013221 -0.0157628,-0.00410428 -0.0151262,-0.00847565 -0.0202766,-0.0271987 -0.0115739,-0.0418263l0.045659 -0.076548c0.00869823,-0.0146276 0.0280177,-0.0196845 0.0431929,-0.0112133 0.0151306,0.00847565 0.0202766,0.0272031 0.0115783,0.0418307zm0.262634 0l-0.0456546 0.076548c-0.00588043,0.00979775 -0.0164973,0.0153132 -0.0274346,0.0153132 -0.00532844,-4.4515e-006 -0.0107548,-0.0013221 -0.0157672,-0.00410428 -0.0151217,-0.00847565 -0.0202721,-0.0271987 -0.0115694,-0.0418263l0.045659 -0.076548c0.00870268,-0.0146276 0.0280177,-0.0196845 0.0431929,-0.0112133 0.0151306,0.00847565 0.0202766,0.0272031 0.0115739,0.0418307zm0.262594 0l-0.0456145 0.076548c-0.00587598,0.00979775 -0.0164928,0.0153132 -0.0274301,0.0153132 -0.00537741,-4.4515e-006 -0.0107993,-0.0013221 -0.0157672,-0.00410428 -0.0151262,-0.00847565 -0.0203211,-0.0271987 -0.0115694,-0.0418263l0.0456101 -0.076548c0.0087472,-0.0146276 0.0280222,-0.0196845 0.0431929,-0.0112133 0.0151306,0.00847565 0.0203211,0.0272031 0.0115783,0.0418307z"/>
   </clipPath>
 </defs>
 <g id="Layer_x0020_1">
  <metadata id="CorelCorpID_0Corel-Layer"/>
  <g style="clip-path:url(#id0)">
   <image transform="matrix(1 0 0 -1 -4.80539 -12.4845)" x="0.471445" y="-16.772" width="28.7385" height="14.8402" xlink:href="drizzle_night_Images\drizzle_night_ImgID1.png"/>
  </g>
  <g style="clip-path:url(#id1)">
   <image transform="matrix(1 0 0 -1 -4.80539 -12.4845)" x="0.471445" y="-16.772" width="28.7385" height="14.8402" xlink:href="drizzle_night_Images\drizzle_night_ImgID2.png"/>
  </g>
  <g style="clip-path:url(#id2)">
   <image transform="matrix(1 0 0 -1 -4.80539 -12.4845)" x="0.471445" y="-16.772" width="28.7385" height="14.8402" xlink:href="drizzle_night_Images\drizzle_night_ImgID3.png"/>
  </g>
  <g style="clip-path:url(#id3)">
   <image transform="matrix(1 0 0 -1 -4.80539 -12.4845)" x="0.471445" y="-16.772" width="28.7385" height="14.8402" xlink:href="drizzle_night_Images\drizzle_night_ImgID4.png"/>
  </g>
 </g>
</svg>
