<?xml version="1.0" encoding="UTF-8"?>
<!DOCTYPE svg PUBLIC "-//W3C//DTD SVG 1.1//EN" "http://www.w3.org/Graphics/SVG/1.1/DTD/svg11.dtd">
<!-- Creator: CorelDRAW -->
<svg xmlns="http://www.w3.org/2000/svg" xml:space="preserve" width="0.930134in" height="0.815768in" style="shape-rendering:geometricPrecision; text-rendering:geometricPrecision; image-rendering:optimizeQuality; fill-rule:evenodd; clip-rule:evenodd"
viewBox="0 0 0.113678 0.0997003"
 xmlns:xlink="http://www.w3.org/1999/xlink">
 <defs>
   <clipPath id="id0">
    <path d="M0.0785318 0.0611463c0.0100525,0 0.0182035,-0.00801336 0.0182035,-0.0178932 0,-0.00988558 -0.00815097,-0.017898 -0.0182035,-0.017898 -6.39952e-005,-4.81167e-007 -0.000122698,9.62335e-006 -0.000187174,9.62335e-006 -0.00162009,-0.0142685 -0.0139283,-0.0253647 -0.0288763,-0.0253647 -0.0118054,-4.81167e-007 -0.0219614,0.00692496 -0.026507,0.016864 -0.000142907,-5.29284e-006 -0.000285813,-1.49162e-005 -0.000433532,-1.49162e-005 -0.0124411,0 -0.0225278,0.00991926 -0.0225278,0.0221486 0,0.0122342 0.0100867,0.0221486 0.0225278,0.0221486z"/>
   </clipPath>
   <clipPath id="id1">
    <path d="M0.102187 0.0612054c0.00634852,0 0.0114903,-0.0051124 0.0114903,-0.0114215 9.62335e-007,-0.00630473 -0.00514175,-0.0114167 -0.0114903,-0.0114167 -3.89745e-005,-4.81167e-007 -7.84303e-005,4.81167e-006 -0.000118367,4.81167e-006 -0.00101863,-0.00910705 -0.00879093,-0.0161889 -0.0182281,-0.0161889 -0.00745088,-4.81167e-007 -0.0138644,0.0044176 -0.0167355,0.0107613 -8.85348e-005,-5.29284e-006 -0.000182362,-1.01045e-005 -0.000270897,-1.01045e-005 -0.00785554,0 -0.0142238,0.00632927 -0.0142238,0.0141353 9.62335e-007,0.00780646 0.00636825,0.0141357 0.0142238,0.0141357z"/>
   </clipPath>
   <clipPath id="id2">
    <path d="M0.0243557 0.0783542l-0.0109244 0.0196071c-0.000625999,0.00111342 -0.00175385,0.00173894 -0.00291587,0.00173894 -0.000571146,0 -0.00115288,-0.000147718 -0.00167975,-0.000467695 -0.00161047,-0.000960891 -0.00215755,-0.00308813 -0.00123131,-0.00475778l0.0109297 -0.0196076c0.000925285,-0.00166484 0.00298372,-0.0022355 0.00458937,-0.00127028 0.00161143,0.00096041 0.00216237,0.00308813 0.00123227,0.0047573zm0.0187203 0l-0.0109292 0.0196071c-0.000620225,0.00111342 -0.00174904,0.00173894 -0.00291106,0.00173894 -0.000571146,0 -0.0011524,-0.000147718 -0.00167927,-0.000467695 -0.00160999,-0.000960891 -0.00216237,-0.00308813 -0.00123131,-0.00475778l0.0109292 -0.0196076c0.000926247,-0.00166484 0.0029842,-0.0022355 0.00458985,-0.00127028 0.00161047,0.00096041 0.00216237,0.00308813 0.00123179,0.0047573zm0.0187208 0l-0.0109297 0.0196071c-0.000620706,0.00111342 -0.00175337,0.00173894 -0.00291539,0.00173894 -0.000565853,0 -0.00114807,-0.000147718 -0.00167494,-0.000467695 -0.00160999,-0.000960891 -0.00216188,-0.00308813 -0.00123131,-0.00475778l0.0109244 -0.0196076c0.000930577,-0.00166484 0.0029842,-0.0022355 0.00459515,-0.00127028 0.00161095,0.00096041 0.00215707,0.00308813 0.00123179,0.0047573z"/>
   </clipPath>
 </defs>
 <g id="Layer_x0020_1">
  <metadata id="CorelCorpID_0Corel-Layer"/>
  <g style="clip-path:url(#id0)">
   <image transform="matrix(1 0 0 -1 -0.51942 -0.357873)" x="-0.465067" y="-1.31711" width="3.10638" height="1.60409" xlink:href="icon_rain_Images\icon_rain_ImgID1.png"/>
  </g>
  <g style="clip-path:url(#id1)">
   <image transform="matrix(1 0 0 -1 -0.51942 -0.357873)" x="-0.465067" y="-1.31711" width="3.10638" height="1.60409" xlink:href="icon_rain_Images\icon_rain_ImgID2.png"/>
  </g>
  <g style="clip-path:url(#id2)">
   <image transform="matrix(1 0 0 -1 -0.51942 -0.357873)" x="-0.465067" y="-1.31711" width="3.10638" height="1.60409" xlink:href="icon_rain_Images\icon_rain_ImgID3.png"/>
  </g>
 </g>
</svg>
